<mxfile host="app.diagrams.net" agent="Mozilla/5.0 (Windows NT 10.0; Win64; x64; rv:144.0) Gecko/20100101 Firefox/144.0" version="28.2.5">
  <diagram name="Page-1" id="lFTSi1gS5l8CY8kHG8qf">
    <mxGraphModel dx="3565" dy="1903" grid="1" gridSize="10" guides="1" tooltips="1" connect="1" arrows="1" fold="1" page="1" pageScale="1" pageWidth="2336" pageHeight="1654" math="0" shadow="0">
      <root>
        <mxCell id="0" />
        <object label="train model" id="EI2d-nt05hpr1vi_tLHB-54">
          <mxCell style="locked=1;" parent="0" />
        </object>
        <mxCell id="EI2d-nt05hpr1vi_tLHB-64" value="" style="group" vertex="1" connectable="0" parent="EI2d-nt05hpr1vi_tLHB-54">
          <mxGeometry x="70" y="810" width="410" height="320" as="geometry" />
        </mxCell>
        <mxCell id="EI2d-nt05hpr1vi_tLHB-86" value="" style="edgeStyle=orthogonalEdgeStyle;rounded=0;orthogonalLoop=1;jettySize=auto;html=1;strokeWidth=5;" edge="1" parent="EI2d-nt05hpr1vi_tLHB-64" source="EI2d-nt05hpr1vi_tLHB-58" target="EI2d-nt05hpr1vi_tLHB-80">
          <mxGeometry relative="1" as="geometry" />
        </mxCell>
        <mxCell id="EI2d-nt05hpr1vi_tLHB-58" value="" style="rounded=1;whiteSpace=wrap;html=1;container=1;" vertex="1" parent="EI2d-nt05hpr1vi_tLHB-64">
          <mxGeometry width="410" height="320" as="geometry" />
        </mxCell>
        <mxCell id="EI2d-nt05hpr1vi_tLHB-59" value="&lt;font style=&quot;font-size: 36px;&quot;&gt;Train model on data&lt;/font&gt;" style="text;html=1;align=center;verticalAlign=middle;resizable=0;points=[];autosize=1;strokeColor=none;fillColor=none;" vertex="1" parent="EI2d-nt05hpr1vi_tLHB-64">
          <mxGeometry x="42.10526315789474" y="30" width="340" height="60" as="geometry" />
        </mxCell>
        <mxCell id="EI2d-nt05hpr1vi_tLHB-60" value="" style="shape=image;verticalLabelPosition=bottom;labelBackgroundColor=default;verticalAlign=top;aspect=fixed;imageAspect=0;image=data:image/png,iVBORw0KGgoAAAANSUhEUgAAAO8AAADrCAYAAACB4cGvAAAACXBIWXMAAA9hAAAPYQGoP6dpAAAAO3pUWHRTb2Z0d2FyZQAACJnzTSwpyMkvyclMUihLLSrOzM8z1rPQM9JRyCgpKSi20tfPhSvQyy9K1wcAqasRLPqAh9UAACAASURBVHic7J3nc1vnfuc/aEQh2ACQBAmCvVMiKVJUb7YsWXauYyeZ2czuZl/l1e7+RdkXO5PsTjI3uffmNl/bsq1eqEKxi70ALAAIgOi97QvNeS6pYqsQpJTFd0YjmzoEnnPO831+/feT5XK5HAUUUMAHB/lBL6CAAgp4OxTIW0ABHygK5C2ggA8UBfIWUMAHigJ5CyjgA0WBvAUU8IGiQN4CCvhAoTzoBbzPkELg2WyWXC4n/kiQyWTI5XJkMpn4U8DbQ3q2O59zLpcjm82Ka55/5tLP/n/EnpJ358Z+fqM/j+c3+/vwAp5ffzqdxu/3s7m5yezsLJubm/j9fhKJBEVFRVRVVdHa2sqRI0cwGAyoVKq83Mfz6wLe6tm97H28D88d/rxfotEoHo8Hj8dDMplkeXmZhYUFYrEYABaLhe7ubrq6uqioqECn0+V1TT/3b89f81PPc6/3+56RV3r48XiccDhMKBTC5/ORyWRe/FKlEqPRSElJCTqdDrVa/d5somw2SzqdJhgMsrW1xfz8PJOTk9y7d4/FxUXcbjfRaBSNRkNjYyNDQ0Nks1n6+vqoqalBoVDs+ZpyuRyJRIJgMEgwGCSZTGIymTAYDCiVr/cKJQkWjUbJZDJoNBpUKlVe1vs2kO5xfn6esbExlpaWiMViTExM8OTJE2KxGDKZjPb2dk6ePMmZM2cYGBigo6MjbwdmLpcjk8nsImg2myUWixEMBgmFQkSjUZLJJDKZDI1Gg1KpRCaToVKp0Gg0FBUVAYh/Ly4u3rNDfk8lbyqVwmazMTExwczMDI8ePSISibxwXUlJCefOnaOzs5PW1lYaGhrQaDTI5QdngkubOxaL4Xa7efLkCcPDw9y/f5+lpSUCgQCpVEqo0JFIhMXFRfx+P+l0mng8zqVLl9Dr9Xt+H+l0ms3NTR49esT4+Djb29tcvHiRCxcuYDQaf5aA0ib0+XwsLCwQDoexWCwYjUb0ej0ajQaFQnEgB2gulyOVShGNRnE6nfzqV7/im2++YW1tjVQqRSqVQqFQYDabKSkpQaVSMTY2xurqKgCtra17/rwlIRQMBsX73bnWzc1NpqammJ2dxW634/P5UCgU1NTUUFxcjEKhoKysjJqaGgwGg9AyzWYzLS0tVFZWUlxcvOu5v82z3xPy7lR5hoeH+e6771heXmZlZYVEIvHC9RqNBr/fz/j4OEeOHOHTTz+lsbGR4uJiYH9VuZ12bSQSYXl5mUePHnH16lVmZmaw2+3iAFIoFOh0OlQqFclkklQqhdfrZXx8nOrqampqaujv798zVU5aWzweZ3x8nB9++IHR0VGi0SglJSXU19dTVlb2WtLT7/fz61//mvHxcQKBAAaDAZPJxNGjRxkcHKSqqmrfpbBkmqytrTE2NsaDBw/48ccfmZ+fJx6PI5fL0el09PT08NVXX9HS0oJSqcTn8/H06VPKy8vzsley2SzT09N8/fXXTExMEI1Gd/1bNBple3ubQCBAOBwmmUwil8ux2Wy7JK+kVUrQarVUVVXR3t7O0NAQR48epba2lqKiInK53BvfyzuTV5JY4XCYubk5Hjx4wMOHD/F4PEQikV3OBgmRSISpqSnW19fZ3t6mqKiICxcu0NzcjE6ne6sbedM170QqlSIYDDIzM8PDhw+5e/cuDx8+ZHt7G4DKykrq6uqwWCyYTCaKiorw+/2sra2xtrbG9vY2T58+pb29nc7Ozj21w6LRKCsrKzx8+JDHjx+zvLwMgN1ux+VykU6nd22QVyESiXD37l2ePHlCIBBArVZTVlZGOBxGr9djMBiEBNuvwzOTybC5ucm9e/f45ptvGB8fZ21tjWw2S01NDUeOHMFsNtPZ2clnn32G1WpFqVQSCASor6+nrq4uL9paLpdjZWWFP/zhDzx9+vQFAaRUKlGr1SiVShKJBCqVivr6enQ6HclkUpA6FosJbiSTSXK5HGq1mqdPn+J0OkmlUpw4cQKLxfJWBN4TyZtIJLDZbHz33Xc8evSIjY0NksnkK6/PZrP4/X5CoRDhcJhoNCoI1dTUhE6ny9sG2mnLxGIxoU4uLy/z9ddfc//+febn54lGo+j1ehoaGujs7OT06dMcPnyY+vp6lEolW1tbPHnyhBs3bnD//n02NzdZWFggHo/v6Xq3tra4desWt2/fZnFxkWg0SlFREel0+qX+hFdBMgmi0Sher5dkMklRURE6nY6ysjLa29sxmUyoVKo9Xf9PIZVKMT8/zw8//MDXX39NOBxGqVTS2NjIqVOn+Pu//3vq6+vRarWUl5cL+16tVmMymfLm4c/lcgSDQTY3N4nH42JvyuVyzGYzZrNZmCtzc3MAnD17lq6uLlKpFHa7HafTiUKhIJPJ4HA42NraIpFIkEql8Hg83L59m2g0SjQa5fLly5jN5jd+9u9MXomIs7Oz3Lp1C7vdTiqVeq3fzWQy+P1+ZmZmuHr1KkqlkqKiIpqamoShnw/kcjnC4TDz8/MEAgHW19eZnJzk9u3brKysEIlEKC0t5ciRI1y+fJkTJ07Q0NBAWVkZarUauVxOWVkZOp0OrVbL5uYmXq+XQCDwRoR6HUjkXV5eFoecXC6noqICk8n02qpucXExQ0NDxONx0uk0DoeDRCLB0tIS9+/f59SpUxw6dIiqqqo9Xf+rsNPHEIlEBElMJhOnTp3iv/yX/0J3d7ewIXdqBVK4KF+QyWSUlJRQU1PD9vY2iUQCmUxGcXExf/M3f8OFCxcwmUxsbGzwf/7P/2FmZoZsNsvRo0exWq1Eo1ESiQRyuZxsNksoFGJ6ehqfz8fW1hbDw8Osrq5y7949PB4PNTU1aLVaDAbDG5kub0XenTHPeDzO06dPuX79uljgm5QIp9NpvF4vIyMjQn2rrq4Wp9Ben6zZbJaNjQ1GRkb47rvvWFtbY2trC6/Xi9vtJpfLUVtby9mzZzl//jynT5/GarW+4FBTKpWYzWY6Ojro7u5mZmbmBc/kXkCy77xer1CriouLqaqqeiPy6vV6Pv74Y2pra7Fardy7d4+lpSW8Xi+Tk5N88803FBcXU1lZmXe1OZvNYrPZuHPnDr/97W8ZGRlBLpfT1NTEf/pP/4m/+Iu/oKenh9LS0l3PfL/UeblcztDQEP/zf/5P/uEf/oGioiJ6enqor6/nk08+ob29HZlMhlKppKSkRLyXiooK6urqXtgD6XSa5uZm4vE4kUiEjz/+mCdPnnDz5k3m5+f593//d2QyGRcvXswveSXShkIhvF4vLpeLBw8eMDY2ht/v/1nJI5fLhYQFSCaTJJNJPB4Pc3NzjI+PMzQ0hFar3XPpK4UjbDYb9+/f5/bt26ytrQmHlEajwWKx0N/fz+XLlxkYGKC+vh6NRvOCipbL5VAqlYJIGxsbedlcqVRKeLrhmdOsurqa6upqysrKXvs7i4qKaG1tpby8nKKiImKxGFtbWzidTrxeL2NjY5w7d27PD5/nIUlcl8vFo0ePuHfvHi6Xi/Lycnp6erhw4QIDAwMvfeb7BZlMhtVq5fz589y/f5+Kigrhk6mrq0On04lwaDweR61WYzAYKCoqeuk+UalUVFdXi/9vbW3FarWSTqdZXV3l8ePHdHd3c/78+dfyX0h4K/JGo1EWFhYEaScnJ5mfn/9JOxdApVKh1+upqKigqqqKTCaD1+tlfX1d2ArDw8NcvHiR0tJSjEbjnr68bDbL1tYWMzMzjIyMsLGxQTgcRiaTodVqaW5u5uTJk1y8eJGzZ89SUVHx0heyEzKZDIVCgVKpFJk/e4nnk13UajWHDx+mubn5Bcn0KkhrLC0tFR59n8/HkydPcLlcJBIJVldX8Xq9pFKpvNzHzvuR7G6v1yscPnV1dZw/f57m5uYDJa4E6XkNDAxQWVlJT08PVVVVIichkUiwvLyM1+tFr9fT2tqKXq9/4XNelgUml8tpb29ncHCQq1evsri4iMPheKlz96fwRuTN5XIkk0nm5+e5du0a165dY3Z2lu3t7V1Op5fdQFFREc3NzbS1tWG1WmlqaiKdTrOwsMD169fZ2NggGAyytraGy+UiGo1iNBrf6GZ+bu2pVIqpqSlGR0ex2+0iBGA0Gunp6eHKlSscO3aMjo4OjEbjzwbT0+k04XAYt9tNKpWipKRkz20xlUpFSUkJSqWSdDqNRqPh6NGjNDY2ik3+OpDsRLlcTmVlJV1dXVitVmw2m3Acbmxs4HQ6qaure+3kjzeBpPlMTEzw/fffMzw8TCwWo7m5mYsXL/LJJ59QW1t7oPF++DPRSktL+fTTTykqKsJgMAh/h7SXXC4XoVAItVot/u11oVKpxO9kMpk3Ji68Jnl3xhvX1tZ48OABd+7cYWJigq2trVeqypJ9ZjQasVgs9PX10dPTQ11dHVarlUwmg8lkYmVlBZ/Ph8/nIxAIsLi4SFdXF3V1dW98Q69CJpMhHA6L4LrX60WhUFBZWcmRI0c4c+YMFy9epKWlRaijryKGJA0TiQTb29usr6/j9/vzIrGKi4uxWCw4HA6CwaBw6Enezjf5PularVZLdXW1SHyQ1D+73c7a2hpmszkv5I3H46ysrHDjxg1u3brF+vo6APX19QwODtLY2JjXdMc3RVFREQ0NDcCfHWU7Q6M2mw2/309TUxM1NTVoNJqf/cydORHb29uEw2GMRiMVFRX5i/Nms1m2t7e5d+8e3333HQ8ePBAOnudRVFREUVERKpWKlpYW+vv7GRoaorOzE6vVSllZmTD0Ae7du8fc3Bw+n49oNMro6CgDAwMcPnx4zxIHIpEIS0tLTExMsLi4SDwep7a2lqGhIT777DNOnDgh7Fv4eedIKpXC7/ezvr6OzWYjlUrlxV4sLS2lvb2dhYUFgsEgcrmc0tLSN5K6z0OlUlFWVobJZKK4uBiZTEY8Hmd1dZXV1VWOHDmyx3fxDOFwmLGxMa5du8b4+DjZbJby8nKam5vp7Ox8I3tvv/AyaZpMJtne3mZ+fp5YLEZtbS0dHR0vVZtfhmQyyeLiImNjY3g8Hvr6+mhqanrjvf7akjeRSOB0OhkZGWFubo7t7e2XblbJODebzWi1Wo4ePcq5c+c4dOiQSCRXKBRioRqNRvwMnh0SwWAwL/HS4eFhlpeXCYVCaLVahoaGuHTpEidPnhSZLvDzxJW87G63G5vNRiwWQ6/Xv3a205tAo9FQWVkpDhXp1JaC/m9DYEmFlux0+HPIb3t7e8/DXRKy2SyJRIJkMkk2m0WpVFJXV0dDQwOVlZUiO+l9wcvWIpmOgUCAUChERUUFDQ0NrxWjldRtt9vNzZs3uXbtGqlUitbWVmpra/NH3kAgICSX0+kU+Z4S5HI5Wq2WlpYWhoaG6OjoQKfT0d3dTXd3NxUVFS99OZIdJv18p1q4Fy9SOmA8Hg+PHj0SObNms5mBgQF6e3upq6vbZbM8X4K2829J7QmHw9jtdmZnZ1EoFLS1tdHX14dWq33nNe+E5OSTNod0are0tFBVVfXWBH6+rE5y5rnd7reyv14X2WxWfL5kvx86dGhXhtf7DEmQhUIhUqmUSHT5qbVLezCZTGKz2fjlL3/J1atX8fl8HD9+nMuXL9Pd3Z0f8kpZIjMzM6ytre3K9YRnhCstLaWhoYFjx45x5swZ2tvbUavVIh75fOqdZDuk02nS6bR4oZJjay/JKznCduYpK5VKlErlrsTwbDZLIBBge3ubVCpFWVkZ5eXlu1RU6fT0+Xysra1hs9koLi6mra2Njo6O17J73gRSGEL63EQiwdzcHP39/bS2tr5VOO1VEiUejxONRvNGXunZZbNZ9Ho9LS0tnDhxgra2NrRa7XsldV+FXC6Hz+djdXWVRCJBVVUVlZWVP0s8yaN//fp1vvnmGxwOB21tbVy5coX+/v5dHHldvDZ55+fnefDgAVtbW7tCQjKZDL1eT0dHB5cuXeLEiRP09PQIh4qUHfP8i5HUP8lJlU6nRdlUbW0tpaWle/IyM5kMq6urTE5O4vF4dpVlORwOnE4nVqsVlUpFJpNheXmZhw8f4vV66ezsZGBgYJczIpPJEAwGsdlsokTwyJEjtLe3U1tbu+fphXq9nsbGRqGSJ5NJpqenWV1dpa+vj/Ly8jc+sbPZrPBwSkSVwmVarTZvEjCRSLC1tUUsFsNsNnP27FnOnTtHY2PjgVU1vQ4kQSMVUqyurjI8PEwikaCjo4P+/n6xP6TrMpkMmUyGVCpFLBbD5XLx448/8qtf/QqHw0FLSwu/+MUv+Mu//EvMZvNbPfPXIm86nWZpaYnR0VFRFC1BJpNRWlpKT08PX375JfX19RQXF4v46PMPQfo7nU5js9kYGxtjeXmZSCSCRqPBYDBQXl6+Z84LSWtYXV0lHo/T29tLR0cHNTU1KJVKUqkU8XhcbGgpXXNkZITFxUVisRjHjh2jvr4etVpNNBplaWmJ4eFhZmdnKSkpYWBggJaWlrzUJRcXF9PQ0IDRaKSoqIhkMondbmdubg673U5JSckbkzeTyRCNRgkGgyLpvqioiM7OTnp6evKW3+z1erl69SorKyu0tLRQW1sryvzeV+zMg49EIshkMtbX15mfn0ev19PV1UVraysqlUpokpFIBK/XKyT01NQUjx8/ZnNzE7lczldffcW5c+c4evQo1dXVb31wvba3OZFIiCqJFz5EqUSr1VJWVibUuGw2SyqVEimDEnGl2k2Px8Pdu3e5efOmUEFMJhOtra2YzeY9K054Xh2sqamhr6+Prq4uACoqKnbV4GazWRES8/v9wsY5efIkFRUVwnYeGRnB4/HQ0NBAb28vVqt1z51VO1PwzGYz5eXluFwufD4f8/PzLCws0N7e/lrF3TsPTslel2Lr8EzC9/T00NXVlTcyJRIJHA4H4XBYpMRWVVUxNDREa2vrgdd0vwzpdJqpqSnGx8dJp9Po9XrGx8dxu91Cu5QqzPx+Pw6Hg5WVFVwul7hPj8dDaWkpx48fp6enh8HBQVpbW985FfW1yCslaldUVBAOh1/wRiaTSfx+P6urq4TDYcrKytDr9fj9fqLRqEjtk9IqnU4n8/Pz3L9/n9HRUdxuN2q1msbGRvr7+6mtrd3TmthkMikS30tLSzGbzbS2tr7gRJPL5ej1ekwmE2q1GofDwd27dwkGgwQCASorK/F4PNy6dYu5uTlUKhVWq5WWlhZR5bLXkGpD6+vrqampwe12E4/HsdlsotuE5CR7maazk7SZTIZEIoHdbhcF7eFwGIVCgclkor29ncbGxryRV6lUUlFRwebmJg6Hgxs3buD1eonFYhgMhrdWH/OJbDbLysoKP/74I36/H41Gg91uJxgMotVqefr0KYBIM93Y2BChQ61WS0lJCSaTic8//1wkAEnO0XfdL69FXrlcjsVioa2tDZfLtUt1lrpKSMH3iooKsdGk9DGJOLlcDq/Xy+rqKhMTE7hcLiKRCHK5nJqaGrq7u4Udt1cbaGcetpQFVVpailqt3lWtIuWg1tbW0t/fz/T0NKOjo2xsbODz+ZienkatVos8bIVCQWdnJw0NDRQXF+d100lOPIvFwvT0tHCYORwO/H4/Op3ulWaKVDooJRZsbW3x6NEj7ty5g8PhENJEUmP1en3ebE+pUsvj8WCz2fD5fIyPj9PS0kJvby9arVZUEUmQohFwMP22FAoF7e3t9PT08Ic//IGVlRUCgYAIFf7xj3/kxx9/JJvNUlpaisFgoK+vj8bGRrq6ukTiiWQi7GXq52uRV6lU0tXVxdmzZ1lYWGBzc1M4rSRyTE9P43K5KC4upqmpidra2l09nyRIlRXBYFD0UqqqquKjjz7iypUrDA4O7mk9rxS/dLvdJBIJQV5J1Xy+kVhFRQVdXV0cPXpU9IwKBAIEg0GxJpVKRWtrKydOnOCTTz7BYDDsyVpfBaVSKYoRtFqt0HTm5ua4e/cunZ2dVFRUvHDgZTIZ8fzT6TRbW1vMzc0xMjLCxMQEfr8fg8FAW1sbly5dEokC+SKJZCOOjo5is9mEd//7779neXmZ6upqTp8+LTpmKJVKUQX1uskzew2FQkFDQwNnz57F5/Ph9/vx+XyYTCa+/PJLUZBgMpmEaSNFKSSTTLqXvT7gX4u8CoWCuro6ent7aW1tJR6Pi2B+JpMhmUyKRHOlUonT6cRgMOB0OndVxEifpdFohFOqoqKCjo4Ozp8/T39/P9XV1XuemifZ65lMRiQoSMSV1i8dKuFwGI/HI9YsPfCdpoJKpRJJDlLBdTabzZv0lXo41dfXU11dTSQSIRaLsbS0xNWrV1lbWxMe8Z2bO5VKsbS0hN/vF1lBdrud1dVVtre3UavVtLa2cvr0aU6cOIHZbM4rOVQqlWg8KOVqZ7NZ7HY7drudoqIiNjc3hQNIpVLR3d3NqVOnaG9v3/Mw3OtAiqZYrVY6Ojq4deuWqD67cuUKDQ0NgrxSxdZ+lTG+ts0rdVs4deoUMplM2Es+n09kzMAzA9/lcuHxeIQ0k6Sc1JjLbDbT1taGwWCgtraW3t5eEZLJRx8lKQk8FouxubnJ0tISMplM/Mzn8+H1etnc3MTtduNwOHj69Ck2m41wOLwrEUKyoTc2Nrh37x4KhYIrV668YEPvJZElm3doaIiVlRVCoRB+vx+73Y7D4eDx48dUV1e/oLEkk0lmZ2fx+/278nKlYv6GhgYuXbrElStXOHz4cN7TE1UqFVVVVXR2drK5ucnGxsaugpZkMsm9e/cYHh4WzrpDhw4RjUaxWCwHQt6dkPpXabVa4Zlvbm4WavBOdXg/NITXJq9SqcRgMHDkyBE0Gg0rKys4nU4WFhZE0jw8k1RqtVq0vVSpVGJDS+1S+/r6OH78OBaLhYqKCqHK5iMZXi6XYzKZsFgsBINB0VjObDajUCgIBoO43W7RcyiZTJJIJIhEIqKDgnQvMpmMVCpFMpkkGAwyNTWFx+PB4XBw4cIFTp8+jdFoRKvV7mkPZ+n5d3d38+WXX+LxeFhcXMTpdIoElK2trRecIFJTPaVSKVJQJUnS2NjI6dOnOX/+PF1dXW9cFfM20Ov1DA4OYjQaqaur43e/+x0zMzO7EkN2Zu6l02m2t7dxu90vZPTtN8LhMKurq8RiMaqrqzl06JDQIA4qPv3abJHiuUeOHKGhoQG32y28xg8fPuTp06dks1lhw1ZXVwsPteTQkTzKHR0dNDU1idBSPk8rqXKorq6OlZUV7HY7m5ubQkpJfZ12bg6pa2FNTQ0tLS0i91Qmk4mE9MXFRSHFpdDLkydPaGtr4/z583R3d+/pfchkMqqqqjh27BiZTIbR0VEePXrEzMzMT9ZRa7VaLBaLaK8rk8morKyku7ub3t5e8R72RVIolZhMJkpKSkTm2MOHDxkdHRUdI3fmy0ulpO9D9pVCoUCr1WI0Gmlra+PMmTOUlpYe6JpeW/LCs1xUq9VKXV0d8XicUCjE4cOHsVgstLS0kM1m0Wq1mM1mampqKCsrw2AwUFJSIqSH0WgU7Vv2Q8VQKBTU19fT39+Py+VidXWVQCAg7MCdzcVKSkowGAxUVlZSW1srtITDhw/T1NSEXC7H5XIxNjYmeiivr68TCAREN0yv10tXVxddXV17fl9qtZrq6mo+++wzmpqaqKuro7W19aXtdZ+/f6kzp0wmw2Aw0NTU9MruD/nCzn3U2dkpIgwWi4WbN2/i8/mEahqJRKisrKS/v1+EVw4SpaWl9Pb2Eo/HaW1tpa+v78DLF2W5t6hj29mBUcookcJHUlxS6sa/Mz1yZ9eJ/TpJc7kcsViMubk50WdreXkZm80mcpgl1birq4uhoSGGhobEOA29Xi9CMfDMCSTFqhcWFpienmZ6eppQKERZWRlnzpzh448/zlsnf+meJAdbLBb7yVJE6X3sVIulNkQHpfJJ+0ci6vz8vOh/lk6nsdvtLC8vMzQ0xLFjx+jr6zvQqiMp5CZ1e5Ta5uaz48jr4K3I+yFCar0idY2IRCK7HG1S2xODwbDLI/q8HbizoCISiRAKhYRHXaVSYTAYROnjQat6HwKkHPdIJCJqoqPRKOFwWKTK6vX69zr3+aDw/w15n+8F9VMte35OnX/Z5+z0SO+XGvofAc/H2Xf+fL+9tx8a/r8hbwEF/EfD+5VIWkABBbw2CuQtoIAPFAXyFlDAB4oCeQso4ANFgbwFFPCBokDeAgr4QFEgbwEFfKAokLeAAj5QFMhbQAEfKArkLaCADxQF8hZQwAeKAnkLKOADRYG8BRTwgaJA3gIK+ECx9x3fduD5Ws1CnWv+8ar6WHhxXOn7jlfdy0Hfx+vUhf8c9oILeSfv9vY2GxsbuFwuenp6qK2tBd6PB/9z+NA2OTzrL+10OllbW8PlchEIBFCpVFRWVjI4OEhpaalor/s+3580DnRra4vV1VUcDgfxeByz2UxnZydms1l0G833fTy/Z6TBYw6H4yf7h8GznuHhcHhXN9WioiIqKyupqKgQ1+V10NjbIJPJYLPZ+PHHHxkeHubv//7vxbS7g9w4O8cvSsPQpAbqUqvafPSPzifS6TTxeByXy8XDhw+5desW4+PjbGxsoFar6e7u5r//9//O4cOHqaqqykub3b2C1DNqc3OT4eFhrl27xvz8PD6fj+7ubn7xi1/w+eef71vXS3jWUzoUChEKhcSgvMePH4uWx6+6j2AwiNPppLy8nNLSUrRaLXq9nuPHjzMwMPBOI1Xz+gaz2azoMby0tMTU1JQYZnUQA6WkVjihUAiPx4Pb7WZtbU30SzIYDGJYcklJyUvXKDXRk/77ICFJBGmsyezsLH/6058YGxvDbrcTj8cFqR89ekQ0GuW//bf/xueff05FRcWBN1B7GaQeYYFAgH//93/n+vXruN1uDh06RCwWY2tri//7f/+vmG2U766S0no2Nja4efOmmPEUiUTY3Nz8WcmbTqdJJBK7hIJer8flcqHRaDh06JAYFPemyPvxm0wmiUQiBAIBvF6vQuT0HAAAIABJREFUmEBwEJBOwqmpKR48eIDNZmNzc5NoNEpZWRllZWVYrVYaGxsxGo0vjK0oKirCaDSKcZQHDUlCSdMMb9++zfz8PFqtlgsXLmC1WlGr1QQCAZaXl4UUq6mp4fTp02+9afINr9fL2NgY165dIxqNcvr0aT755BMArl27xvXr13n69CmlpaVYrda8HkDScPYffviB3//+94yPjxMIBMhkMsTj8Tf+PLlcTlVVFYFAgEgk8tKRua+LfdGdpFm977LQd4Vkp8zOznLnzh1++OEHIXVTqRRFRUWo1WpqamqwWq1UVFTsUp2lyfEWi4VIJEJpaSklJSUYjcYDmSsrtX/d2Njg0aNH3Lx5k6WlJerr6+nt7aW/v5+WlhaKiopEX2mn04ndbmdiYoKhoaH3jrzSYbS2tsa9e/dwu90cOXKEL774gr6+PpRKJW63m+HhYWZmZmhoaKCuri6va8pkMkxNTfGnP/2Jhw8fit7S8OcJhlIb5OchjdQpLi6mvLwcpVIppoZ0dnZiMBjeyTzbV8NHo9G8MAxrvxCNRllZWeGf//mfuX37NsvLy7tOPsn753K5WFhYeGFgFDzrd1xaWsr3339PWVkZvb29YtiUTqfb0xEnrwOHw8Fvf/tbfvWrXyGXy/noo4/4u7/7O2pra9FqtcKulYZguVwuvv32W+x2+4GPD3kZcrkcfr+f8fFxrl+/TltbGxcvXuTo0aNotVqy2azooT02NkZ3dzeDg4N59U+k02mePHnC1atXSSaTgpAajYaysjJ0Oh2JRIKNjY1dkytkMhnl5eU0NTXR3d3N8ePHKS8vR6fT0dzcTG1trSD022JfyXuQ9tX29jZPnjxhZGSElZUVwuHwLk1AUuWleUUvswdlMhkejwen04lGo8Hj8ZDNZjl06BBdXV1iROZ+IRQKsbCwwNbWFn19fRw7dgyLxSImVOwcjqbVaqmpqQEgGAweqBb0KqTTaZ4+fcr09DS5XI6PPvqI/v5+odnkcjkMBgMNDQ2MjIzgdDrzboJJg+WkuVVlZWW0tLTQ19dHe3s7FouF5eVl/tf/+l9sbm6K56rVajl//jxffPEFbW1t1NbWipnQer0ejUbzzjOo9428UgjD7XbT1NSUt+nrz0Pqyr+0tMSdO3dYWVkRNm5jY+MLw5xfBcnR5ff7yWQyBAIBJicnSSQSrK+vI5PJsFqt+zoIOhKJsLGxIYaJqdVqMVXg+e+Xy+XCs/k+EjeVSuHxeLh79y6Li4s0NTUxODiIxWLZ9Ux1Oh0mk2nXbOV8Qhr8Pjg4SHl5uRhl09nZidVqFXOU1Gr1rvizTqejv7+fK1euYDKZ8rLf80ZeybMrTdVLJBLMzs6yuLhIf3//rpvNJ6RY8+zsLCMjI/j9frRaLa2trXz11VfU1taKUSY/hWw2i81mY2FhgVAoxOzsLA6Hg7m5OYLBII2NjRw/fnzX4O58QwoNxWIxIpEIXq/3pbbXTuh0OoqLi98bL7NEwEgkwszMDMPDw0QiEa5cuUJtbe0LjsFsNks2m6W6uprS0tK834dSqeTw4cP81//6X7FarRw9elRMmMzlciwuLrK8vCzmP8MzwhcXF1NdXS3GtMDeH+h5I282myUcDrO5ucnm5ibJZJK1tTVsNht+v3/XyMl8IpvNEgwG2dzcxOFwkEwmsVqtHD9+nE8++YTa2trXOhWz2Sxutxu73c7Gxga1tbXMzc3h8Xjw+XxMTk4yPDxMV1cXZrN5XwgSi8VwuVwkEgm0Wq2YWpfNZndJpkwmIzz+JpOJ2tra9yrOm06n2djY4E9/+hM+n4/BwUEuX75MeXn5rmco2cR2ux29Xk9xcXHe16ZUKjl69Cjd3d3C+aRSqcQMrPHxce7du0cgEBC/Izk+S0tLf9KZ9a4TIfb8DUobJhQK8fXXXzM5OSmSIHw+Hw6Hg0AgQHV19b7Yh1KiyNzcHJFIBIDy8nIaGxuxWCxUVVW99oPT6/UYDAZqamqorq6mra2NtbU17t69y9raGt9++y2bm5ucP3+ejo6OfN4W8GcvfjqdZnZ2lm+//Raj0UhHRwdarRa/349cLmdtbY2xsTFu3bqFSqXat2f/Oshms2xtbTE+Ps7o6ChNTU2cPn0as9m861CVNLlYLEYgEKC5uXlfkjTkcjmlpaXiYJTivvF4HLvdzsjICOPj47vCRmq1WnjB7Xb7S30nOp2OkpKSd4pU5OX4zWQybG9v8/3337O1tYXRaKSlpQW73Y7f7xd2434gk8ngcDiw2+2kUing2cOVZsS+iQTS6/Wo1Wp0Oh2VlZU0NzfjcDiIxWJMTk5y584dtra2aGpqor29fV8nIS4tLRGLxdDr9fT09FBcXIzX60Uul7O0tMTY2Bgul4uzZ8/uq8/h59adSqWYnZ3l7t27BINB+vv7GRgYeMGUkUJjgUCAcDhMe3s7ZrN539X/XC5HIBBgaWmJ4eFhHj58iNPp3OVHyGQyhMNh8cyfh0KhwGAw0NHRQU9Pz/uVpCFlnywsLJDL5eju7qanp4erV68SCATY3Nzk8OHDaLXaXQO68oGddvfzg5vfJjlcpVJRXl5OWVkZZrOZuro6IpEIW1tbjIyMEAgE+OKLL/b6Nl6KnRPvk8kkdrudf/iHfxDZPDttb71ez+nTp/n88885evTovvkcfgrZbBafz8ft27e5ceMGhw4dYnBwkIaGhhc0AylZYnFxkXA4zNGjR8XM5P1e8/LyMv/6r//Kr3/9a9bX119wAIZCIa5du8bt27dfquHI5XIsFgt//dd/TUNDw/tFXp/Px/LyMl6vl0AggFwup6enh2Qyyfb2tpgmL41uzCcUCoUg2fz8/DtL/J2El8vlaDQaIb2lnOn9yiArKSmhpaWF7e1tYXNJs5GNRiPNzc3isGlsbOTjjz+mra3tvZg0D888zCsrK2xsbKDRaDhz5gxWq/Wl2lAikeDx48fMz89jNBqpqKg4kIHbkuS12+34fD6hzT1/TTKZ3BX33QmFQkE6nX7nvb9n5JVsgUgkwtjYGN999x0+n0+kE7a2tjI1NYXb7WZubk7EWfNNXrlcTnV1tdgUiUSCRCJBKBQSWV/vcnpLEsHlcqFWq2lqaqK8vHwP7+DVUKvVuzZxRUUF//k//2dqamowmUzU1NSgUqkoLi7GZDLR3Nws1NH3gbyxWIwbN25gs9loaGjg+PHjVFVV7bpGUpdXV1e5f/8+sViMS5cuYTKZDszplkwmiUajbyUIpD1y6dIlzp8//05Otz29+2w2i9/vZ3Jykrt37xKPx+nu7uby5cvU19czMjLC2toaq6uruN1u4fXM50aSHA4GgwG1Wi0GYjudTlGQ8KahnZ1e3HA4zMLCAm63G4PBQH9/P9XV1ftGjp3fU15ezldffUVPT88LpX9yufy9GVAtHfTBYJBHjx4RDoc5cuQIVqsVnU6367pMJoPH42FkZISNjQ0sFguffPIJ5eXlB5KSKlWj/VSGmkwmQ6VSkclkkMlkaDQaFAqFSJQ5deoUX375JadOnXp/MqwymQxerxen04nP50OhUNDW1sbQ0BAlJSV0dHQwMTGB3W7n0aNHGI1G2tvb8/oSZDIZpaWlmM1mzGYzoVAIt9vNzMwMDocDo9FIWVnZrutfB1Lly9LSEuvr68jlcrq7u7lw4QL19fX5up1dkMvlqFSqXUkMGo0GnU733qjGr0IoFMJut+N2u7FYLJw4cQK9Xv9CaCgcDjM+Ps5vfvMbKioqOH/+PK2trfueirpzPT6fD5/PJwgsHY7Su1Cr1VRVVYnkmY6ODoqLi2ltbeXYsWN0d3e/dn7BT2FPyZtMJpmfn2d5eRmZTEZ3dzddXV3U1taSzWYxm81UVFSIWGkwGMy7fSiXy0W1UH19PWtrawSDQZaWlhgdHUWv19Pe3v7GLvtUKoXNZuPGjRusr69jNps5e/YsXV1duw6DfEKS9KOjozidzn35zr1ANpsVlTqRSISGhga6urp22bBSkcLS0hJPnjwhkUhw+PBhent70el0B3IwZbNZtre3WVtbY2NjQ5QDFhcX09jYyLFjxzCZTC+Qt62tDZ1Oh8FgEDnN70pc2CPySmpQKBRifn4em82GWq3mzJkzdHd3U1xcTCwWo6amhqqqKlHN83O1kHsBmUxGcXExlZWVVFVVUVRUhN/vx+l0cu/ePcrKyjAajVRXV1NUVLSrZc/z9yhBqlBaXl7m9u3beL1eent7OXnyJDU1NftWfGEwGOjr66O6upq5ubn3WtJKkEi5urrKw4cPRa5wTU2NUCElh49Uxri4uEhXVxcDAwPU1dXl3dR62ZqlqMXq6ipLS0tsb28LL7PRaOTUqVP81V/9lVhfSUkJiUQChUJBVVWV0BT2shXUO5NX2tThcJj5+Xmmp6eF/XflyhW6urpEh4qmpibq6uoYHR0lFou91FOXDygUCnQ6HUajkfLycoLBIKFQiBs3bqDRaKiqqhKxt+fVUOkepbS8VColOiksLCwwNjZGcXExbW1tHDlyZN9SD2UyGXq9npaWFurq6kQxwvsOKVNtaWmJzc1NPvvsM/r6+nZJ00gkwvr6Ov/yL//CyMgIZWVlfPXVV/T29u5LSuTLIOVe37t3j/HxceFJVqlUNDY2ihCclBW2M8MtX/nueyJ5M5mMSG+bnJxEoVBQX1+PyWQSuak77TGFQkEwGCQWi+Vdbd4Z52xsbOTQoUPI5XLW19cJhULMzc3x4MEDMpkMHR0dGI1GUXYmQSpuCIVCbG9vs76+jsfjwW63U1RUJCTHTuLvB6Rig4qKivcqX/lVkCTq9PQ0o6OjJBIJBgYGaGlpEc8tk8kwPz/PH/7wB65evYrZbObChQu0trYKm/gg7jMUCvH06VMePHjA0tKScEZVV1fT1dVFW1sbJSUl++oBf+dvSqfTzM3N8e2333L16lVsNhtWq5Wenh5Rr5jNZkULk0AgIFSQ/awpNZlMnDlzBoPBwO3bt7l27Rp2u52FhQWRXnjy5Ek6OjqwWCyUlpaKDSX1U1pfX2dxcZHx8XFCoRCJRIL29nY+//xzent79z10IbXkkZqbwdt3M9wPSGGfyclJVlZWqK6uprm5GYPBgEwmI5lM8uTJE77++muuX79OdXU1H330ERcuXBChoYM6oJLJpHDGSn2rNBoNFy5c4G/+5m+oq6sTOc+viwPvHplOpxkfH+fbb79laWmJbDZLQ0OD6DHkdrtxuVw4nU4eP37M0tISyWSSdDq9rxuttLSUrq4uqqqqRE+iYDBIIBBgenqa1dVVkfQubSiJvJKts7y8zPz8PDMzMygUCjo7Ozl37hwXLlzYJT32G1JvJElD2C9z5E2RTCZxOBwsLS2RTqcZGBgQ3SSkwpXvv/+eu3fvks1m+fTTTzl37hyNjY0Hns4pFYE8n8N85MgRzpw5I5oqJpNJURPu8/kIh8PieqnaqKamZlezhLfFnpBXyp1NJpPU1tbS09NDd3c3fr+f69evc/XqVZaWlnC73SJZfj8zkeDPYRWj0Uh3dzfnzp1DJpOxvLyM0+kkGo1y//595ubmRAM6SUWTYo1SDy6lUklLSwsff/wxX3zxBa2trQfmAVUoFJSXl1NSUoLf72dtbY3W1lYqKireOzXa7/dz584dnj59isFg4NKlS1RUVBCPx7HZbPzpT3/i5s2bKJVKvvrqKz799FMsFsuBhIWeh8vl4vr167u8+pIGGYvFiMfj5HI53G43KysrwiE6MTEhrtfpdLS3t/N3f/d3dHd372r9+jZ4Z/JKhcg6nY5AIMD29ja3b9/G5XKJ9LfV1VUCgQCpVEoUN586dYrGfe4iKZPJUCqVNDY2cuXKFZqbmxkdHeXRo0ciccTr9eL1eoWKJpfLd+UJV1RUYLVa+fTTT7l8+bIg7kFV6ahUKiwWC5WVlWxvb7O9vU00Gj2QtfwcIpGIqH+2Wq00NDSQTqeZnJzkxx9/5NatW5SUlHD69Gk+++yzl9bzHhTi8Thut3uX5E0kEty4cYNoNCocVF6vF5vNJnwjbrdbXK9UKllbW0OpVPK3f/u3nDlz5p3W9M7kVSgUNDY20tPTg8fjEYa93W4XNb3xeByNRkNTUxNWq5Xm5mY+/vhjGhoa9l3VlHoL6fV6qqurqampwWw2Mzs7y9zcHDabDbfbTTabJZfLUVRURHl5uXBIaLVampqauHDhAt3d3QcmcSUolUoaGhqoqakRhSDvK6SOJrlcDp1Oh9PpZGpqiocPHzIxMYFKpeLMmTNcvHiR9vb2A8ldfhWkENfO5yvZ6CsrK+KaSCSC3+8nkUjs0i6ltkqSafOqvOc3wTuTV6lU0tPTw/nz51laWsLn86HRaCgpKUGn0xEKhYjFYpjNZq5cucKpU6dEe9WDyAKSvk+pVGIwGBgcHKSpqQmbzcbExARTU1MsLy+LvNXi4mJqa2s5derUrgB8VVWVyEs9SPJKoQqLxYJer6e8vPy9kVbPQ2oCKLUR+u677xgZGWF7exuLxcJf/dVf8fHHH4teYAetKu+ElN64U8OS1GSPx7PrWqVSiV6v32XT6nQ6zGYzvb29XL58mebm5nde0zuTVy6XYzabOX78OMFgUCRfSAFqKatEKk6orq7e1UXyoF7QzoC5wWBAp9NhsVg4e/Ys0WhUnJiSN1fKipHL5WJsxfuwuRQKBWVlZdTW1tLQ0EBra+sLHSjeF+RyORKJBFtbWwSDQUpKSmhvb+fjjz9maGiInp6e93aaQ1lZGd3d3aysrPxkcpFaraa2tpYTJ04Im1Yul1NZWUlrayvd3d2ihc+7QpZ7Rz1LMtr9fr9of5lKpcQNlpaWYjQaMZlMaLXaA/ca/keE1Ft4ZWWFY8eOvRcjZV6GjY0Nfv/73xMIBIT/obW1lebmZurr6/elRPRtkMvl8Hg8TE5OMjs7+8q0XumeysvLhS9E+rler8dkMr3QzP9dsCfklfCyVqp70aungJ+GlAGWy+V2tax93551Npt9IcogrXc/u26+KaT0yJ3P+aew8352/kz6e6/u8Z3JW0ABBRwMCsO1CyjgA0WBvAUU8IGiQN4CCvhAUSBvAQV8oCiQt4ACPlAUyFtAAR8oCuQtoIAPFAXyFlDAB4oCeQso4ANFgbwFFPCBokDeAgr4QFEgbwEFfKAokLeAAj5QFMhbQAEfKArkLaCADxTvX7+R9wDSWBPpz87GAgqFgqKiIpRK5XvTrkVqjpZOp8lms2LA9qvmLUnXFhUVvVedK3YWu0vvIJ1OvzAHV+pYsbMdUb6K+HO5nOjDrFQqxbjO96FpwPux+94D7OxJEIvFmJycZGJigqWlJSKRCLlcTsxXPXLkCF1dXZjNZvE7B/kys9ksNpuNmZkZAoGAWN/z4zKllkV2ux2bzUZvb+8Lw6z3G893YvH5fKIX2uTkJMvLy7hcrl3XKZVKMXjs0KFDeR3slkwmuXr1KsPDw7S0tHD58mWsVuvP3stOvMna3uTaAnl3IJVKEQ6Hsdvt/PDDD9y4cYOxsTHR9V6n01FXV8fi4iJnzpxhcHCQ2tpaiouLD1SC5XI5VldXuXnzJqlUCovFQmdn5wvXSTOFJyYmGB4eprq6+sDJC880gUgkgsPhYHZ2lrW1NTweD48fP2Zubo6NjY1dxFCpVAwMDJBMJkXr3ny1EE6lUjx+/Jj//b//Nz09Pej1enp6ekSf5mQyiUwmQ6vVEggEXmhOJ0lrmUxGUVERarV6l1Ykl8upqKh4oTPl62BfyJtMJgmFQkQiEdLptLhZrVYr5uwclOSSVLREIoHT6WRubo5Hjx5x9epV5ufn2d7eFhsnkUgQCoXY2NhgfHycS5cu8Zd/+Zd0dXXtmui+n2uHZxvM4XCwurrKoUOH0Ov1L70+k8ngcDgYHx/nyZMnfPnll/u5XAFp3ZI2sL29zfT0NNeuXeP+/fssLi6K3sepVGpXbzStVktxcTEOh4P19XW8Xi+VlZV5aWyYyWSIRqNiKuTjx48pKSnBarUK8vp8PmQyGWazWewXCTKZTMzlValUlJSUYDKZdjXaU6vVnDx5kqampjfu+pk38u48Kbe2tvjjH//Iw4cPcTgcaDQaDh06xODgIL29vVit1gOZuSohHA5js9m4efMmjx49YmpqCpvNRigUekEVSqfTBAIBVldXmZycpLGxEavVilarBfZffc5kMvj9flZXV7HZbJw5c+aVEwMzmQxut5tIJEJlZeWB9HeWnmcmkyGTyZBMJnn06BG/+c1vePDgAZubm0QikRfmLUnzmA4fPszFixeprKwUbVTz5XuIx+OMj4+zvr4uGqoPDw+LESaSGQLPho6FQqEXmqlLPhJp3M7zklen0xGPx5HL5ZSUlLyRBpE38kpTxMfGxrh9+zY//vgjMzMz+Hw+VCoVU1NTjI6OMjAwwMmTJxkYGKC6ujpfy3np+sLhME6nk8nJSR4/fszdu3dZXl7G4/H8ZEf7TCaDz+djamoKlUpFaWkpg4ODWK3WfVef0+k0GxsbrK2tEYvFsFgslJWVvfTaZDLJ4uIiNpuNsrKyA2nDm81mcblcjI2N8eTJE8LhME+fPmVkZIStrS30er0Ylyo5pmprazl69CglJSU0NTXR19dHaWkper0+ryaLpJFJBJWarEtTNCorK3eNgi0vLweekd7lclFSUoLBYBC/6/P5WFtbI5FIiE6fFRUVeDyetxp3u6fkldSgaDSK1+tlZmaG3/72t1y9ehWHwyHsAWmGkcPhEBJOmreT70bs0mkZCARYXl5mYmKC27dvMzo6ysrKCrFYbJeaBn+eg1tUVCRO4EQiwfr6Oul0mqqqKtH4fL/Jm0qlWF9fJxAIUFZWhsVieemgbclrKknorq6ufV0nPDto/H4/ExMT/PrXv+brr78mFAqRzWbFBPm2tjbq6urQ6/WiwX1HRwdffPEF5eXlYlD7Xk+Zfxl2vnfp/2tra7FYLLumfjyPcDjM4uIiJpMJi8UiVOyNjQ0WFxcJh8Nks1kxtaOpqYmysrI3ttv3jLw7iTsyMsK1a9e4efMm8/PzuN1u0um0UI0llSkSieByubDZbPh8PtLpdN6lQS6XE+NGv/76a8bHx1lZWSEcDr9U2kr2eU9PjxiMNjIywubmphj7ODU1RV9fH8eOHUOpVO7r/KV4PM7Tp08Jh8O0t7djtVrFGBYJuVyOTCZDMBjE5XLh8XheOKDyCcmvsL29zf379/m3f/s3fvjhB9xuN7lcjtLSUjo6Orh06RLHjx+ntbVVbGbJ0VNSUrLvIZp0Oo3H4yEcDiOTySgrK+N//I//waVLl6iqqkKj0bz0XUsSWxpQJyGVSpFMJkXvarlcjkKhEKOBDoy88GwjjY6O8vvf/57r168LUkgxxc7OToqKinA4HLhcLtLpNMFgkLm5OVZWVujs7MRkMuVVemUyGex2O7du3WJ4eJj19fWX2rYSpM1TXV3NwMAAZrOZyspK7t69y+zsrJB8o6OjtLS0MDQ09EqHUT7uJRgMsry8TDgcprOzE7Vavavx+vPXSw6gV12TD0gTB0ZHR/nVr37F/fv3xQGi0+k4duwYX3zxBSdPnqSuro7y8nLUavV7EUuV4sx6vZ6Ojg4RhtNqtQc2j1nCO5NX2vTSdMBvvvmGH374gdnZWZLJJGq1GpPJJCbrlZaWMj09zR//+EfhUZSkQT5HU0qn/+bmJtPT04yNjbG2tkY4HP5ZWyOXy4mTt6urC6PRiEKhIJPJsLy8zPb2NhMTE9TX19PT0/NKh9FeI5FI4PF4cDqdpFKpn1S9pPuHZx5bk8m0y17LJzKZDE+fPuV3v/sdN27cwOl0kslkUKlU9PT08Mknn/Dpp5/S0NCwb2v6OUjPS5KUxcXFNDQ0UFlZKQbk7dW8grfdK3tCXsmO+eUvf8mPP/4opuyp1Wqam5sZGhri0qVLnDhxAr1ez5MnT7h37x5+v18sPt+SQFLp79y5w61bt1heXn7BSSANFdPpdKjVajKZDPF4XKh829vbKBQKBgYGxBS43/3ud2xsbLC0tMTk5CTb29uUl5fnfRCZdD9ra2v4/X70ej11dXWvNDsymQyhUIhEIoHRaKSnp+eVjq29RiaT4f79+/zzP//zLi1Hp9Nx9uxZjhw5gsFg2PeIw6sgmYDJZJKtrS2hNsOzSYfBYPCF35HJZGg0GkH4lxFbUpsBSkpKKC4uRi6XC+Hwpngr8u5cWDwe5+rVq/zyl79kfHxcnKpKpRKLxcIvfvELvvjiC5qamjAYDCKDRkp5UyqVwnOYz3msyWQSr9fLkydPmJ6exuv1kk6nxb/L5XJMJhPd3d309fXR0tJCIBBgZmaGubk5NBqNsFP0ej0Wi4WWlhYaGhpwuVxEo1EcDgfT09OUlpZSU1OTt3uRIKnMyWSSw4cPc/To0Zc6UODZe5qdncXv92M0GmltbX3BNs4XJJv7ZfNtnz59ilarJR6Pc/bs2V3xcrlc/sKhvl/kTiaTuN1uRkZGsNlsBAIBpqamuHPnDl6v94XrlUolbW1tJJNJVldXX0jpzOVywkGrVCo5d+4cp06deitbV3znW/0Wf34hUjjo1q1b+Hw+crkcarUai8XC3/7t3/L555/T39+PQqEQG+jhw4dEIhHg2fzbxsZG6urqKC0tzdvLCYVCLCwssLi4iNPp3DXhXKVSYTAYOHr0KKdPnxZB81AoREtLC3V1dWQyGXEAqdVqDAYDra2tHD58mOnpaUKhkEjgCIVCeSWvRAC/38/i4iLFxcW0trZSV1f3SukViUREtlhLSwv19fWvJPpeQ6FQ0NHRwenTp7l7964wjxKJBOPj4zgcDmZmZhgfHxdrknwkDQ0N1NbWChtzJ/nzmc/scDh48OABU1NT4qBfXV3lN7/5DUaj8aX3WFNTQyqVEsPZn/9Mv9+Px+NBpVIRDAbR6XQMDAy8dYLPW5M3Go2ytbXFkydPmJub22U7VlYquIqxAAAgAElEQVRWcuTIEb744gu6urrIZrMsLS2xvr7OvXv3GB4eFuTV6/W0t7eLF5SvFxKJRLDb7Xi9XuLx+K5NUFFRQWdnJ2fOnOHEiRN0dnZiMBjEqMyKigoSiQRWqxWj0SiS4ktKSjAajahUKrLZLOl0WthI+YaUnGG329HpdMKGfdXzi8VizM/PE4vFKCsro6SkZN8KK+RyOZ2dnXz00Uesrq6yvr4uzBGn04nH42F1dZXR0VGxJo1Gw4kTJ+jt7eXw4cM0NzejVquFWZNPp2YulxNJO06nU6i6kUiE0dHRV0pK6eev8uRLdrRWq2VhYQG73c7hw4ffep1v/PYke2B1dZXvvvuOf/zHfxSqGzw7Devr6zl9+jTl5eXEYjFWVlb4p3/6J4aHh7Hb7USjUZLJJBqNBqvVyrFjxzCZTHn13sViMZxOp/B+S+TVarW0tbXx2WefceXKFRobG0XgX6lUiqnzuVxul+s/Fovhdrux2+27pPh+DF3M5XKEw2E2NzdZXV2lo6NDxEVfdm0ikcDn87G8vEwikdj3oeZyuZyqqioGBwdZX1/n4cOHouBDGvsZCAREDjk820c2m42vv/6arq4uPv/8cyoqKoRT0GQy5e3wyWazIldcsm+VSuX/a+/NnuI+s/v/V9P7QkMDDTT7vkqIVUJIyJKMd0/ZiaeS1FRNkotUbpOq3KRyk7v8A7maSlKpJOPM1HdmHHtseZFtSdaOEAKEWMS+N73Q0A1N792/C/+eZ0CLDRKLlPS7SiUVoOZ5Pp/nnOcs73MORqNxV7EMYZ3GYjGUSiUpKSkytyvSes+TGn0m4d3c3GRycpIbN24wOzsrb1Hx/ampKX77299y48YN1Gq19B0dDgeBQAD43iw6fvw47733Hh0dHZKJsl8Qa3A6nVLYBDGgtraW2trabUUG4oBrNJrHIqAi5eL3+2V++iARj8dZWVnBbrcTDoexWq1PHdoci8UYGRnhq6++YnV19VAokQqFgvT0dI4ePYrJZKKyspLr168zOjpKMBjE4/Gwtrb2mMXi8/lYX18nEAiwsrKCTqejtraWs2fP8t577+1bwE2hUJCamkpeXh5Op1O6TO+//z5VVVU7djdCoRBOp5OFhQWys7OxWq2kpaWh0+koKCigpKTkuaLruxbeWCyGw+FgZGSEBw8eSGHcCofDgdPp3KahRJ2mVqslLS2NiooK3nnnHd54443n3sQPQdS6er1e7HY7GxsbxGIxSU2rr6+nra2NioqKHU1mF5/n9/txuVxSgISWDYVC+y7MsViMhYUF5ufnMZlM1NbWPpGaKdb08OFDvvvuO4LBIDk5OVgslgNngmm1WnJycsjIyCAjI0MS+YPBIKurq3g8HiKRCLOzs9jtdjY3N+WZCQaDDA4OArC0tMTa2ho5OTnU19dLbvNeWhLCeuzo6GBycpJoNEpBQQFdXV07zuOLaLU4I1lZWWRmZkr+8l4wxHYlvCLdMDg4SG9vLwsLC48RyMXCHw0s6HQ6yVutrKykq6uL06dPU1lZKU0H8X/i8fie0d8SiQQ+n0/yR4V212g0FBUV0dLSQmtrK4WFhT9IDBB7EhS/2dlZxsbGmJmZIRgMolKpZPXUk57JXiIWizEzM8Pc3BzZ2dkcOXLkicUdoj52cnKS0dFR4vE4RUVFlJSUHGgjga1T4TUaDeXl5eTl5XHu3LltjQ+CwSCXLl2ip6cHp9Mpmwusra0xNTXF+vo6CwsL+Hw+TCYTb731Fq+88grZ2dl7uh9RJXTs2DE++ugj/H4/ZrNZkkd2oiwSiQRqtRq9Xk9BQcG2dOheKZpd7Xhzc5Ph4WE+++wzbt68KbnKYkFPc9QNBoOMNra0tMgDlJmZiUKhkDeVuCkEuWMvUkfRaJTZ2VmGh4fxeDzyd6nVanJycsjNzcVisTw12LNVoQhSxMDAAJcvX+b69eu43W6i0agkbUQikX0PWIlAj8PhIC8vD5PJ9JjvJLjMN2/e5N69e6ytraFUKqmoqKCqqurQyBCi2MBoNGIwGLYp+lgshsVioauri3A4LAV7ZGSEDz/8kHv37rGysoLP5+Prr7+WHOF33313T01oUaY4MTFBKBSSQii6aOx0n/C9a7ZfVs6OhFc8XI/Hw82bN+nr68PhcEhCeVVVFRaLRaZMnibECoWCzc1NFhcX8Xg8j/lo0WiUYDDI5uYmra2tMsX0PBAhepfLta3oQASqysrKSEtLk7/n0YCTuG2dTieTk5P09/dz584dBgcHmZmZ2abANBoNJpNp3wVDkEY2NzfJz8/HZDI9pngikQgOh4Pr16+zvLxMUVERm5ubFBUVkZ+ff6itXEQ7oSdBr9eTl5cH/EGZZ2dnyzY0PT09eDweHA4Ht2/fJisri3Pnzu25/xsMBiUfQbzXw2668Ch2LLwbGxtMTk5y69YtFhcXicViKBQKzGYzbW1tklc7NDT0GPE9EongdrsZHBxkaWnpiaaDeFGiX1BqaipHjx597oclukesrKxsY76Im1f4f6JfkliLUCR+vx+fz8f4+Dh3796lu7ubkZERPB7PtkKGlJQU6c/vJ9lErE+4AFlZWU8MQq2urnL//n3m5+fRarWUlpaysLBAeno6ZrP50Hm5O4VSqSQ3N5fz58/j9Xrx+Xzcu3ePQCCA3W7flunYS4jUnyDmiJ5lL9Jz25HwRiIR+vr6+J//+R+uXbsmuwVotVqOHTvGq6++yvnz52ltbeXDDz/kypUreDweecDC4TALCwvY7fYf3LyossjOzmZ9fX1PNihMzJmZGdbX16VJK7pPjI2NSa0uFEosFmNjY4OFhQXGx8eZnZ1ldnaWhYUFnE7nY/S3lJQUdDodaWlpZGRkHEhEV1DqHj1Q8XicYDAo6ao2mw2bzcbS0pJsTPci3R5Pw6MN6NLS0jh9+jR2u52JiQmZq9+v1JzIJojz6/V68Xq95ObmvjD86x0JbzQaZWRkhJs3b+Lz+eTBMZlMnDhxgqqqKrKysmhoaACgpKSE/v5++vr6ZKAoHo//oDkN3/M98/Pz6ezspKKiYk+0nFKppLi4mNraWhwOB8FgUOYVL168SG9v72M5UlHz6/f7WVtbY2NjA7/fL62CR2EymSgvL+fEiRM0NzdjtVqfe907gWitsjXgFw6HGRwclESYY8eOsbS0xO3bt6W1BIfbMO9J2NoaB5CRZ4fDIQtYHjx4QG9v746KSfZiPeJPKBTC5/Ph8/keK1t9tMnfTj73SXiW97Ij4Y3H47jdbhYXF6VpabVaaWlp4ezZs5SWlqLRaMjKyuLEiRPk5uZSX19PdXU1i4uLuN1uPB4PS0tLj92oIm1kMBjIzs6mvLxcspz2QnhFp8GTJ0/y8OFDVldX2dzcJBQKMT4+zvj4+A9GmLf+/SSo1WpsNhvt7e288cYblJeXHwhnWBSqi8ZlwrW5c+cO33zzDbOzs7S2ttLU1MT6+jqbm5vk5uY+0T9+ERAMBrHb7czPz+Pz+QiHwzx8+JC5uTnZ2WR+fl6SfPYTCoWCjIwMysrK0Ol0eL1eZmdn+fbbb0kkEpSUlJCeni55yVufZyQSkUp+6/kRATiRsXG5XHi9XtRqtexEuttqtB0Jb0pKChkZGRQWFsqmXBUVFbz55ps0NjaSlZUl/ViRdywtLaWxsRG3243L5WJmZob79+9jt9u3fXZBQQFnz57FYrGQlZWFzWYjIyNjz5rSKZVKioqKOHbsGBUVFSwsLBAKhWRBNDwbK0qpVKLX68nMzKSpqYnOzk5aW1sxGAz7LhyCRKDT6XC5XCwtLRGLxVhcXOTXv/419+/fp6ysjLfffpuSkhL6+vpkflWr1cob5aCFWFTcuN1uvF7vtny41+tlcHCQnp4elpaWiEajLC0tyWJ4ERPZGnA0m83k5eXtedpLoVBgs9loaWkhJycHj8fD9PQ0/+///T9WVlY4duwYJSUlZGdnbzOhRZcVt9u9zUWLx+Nsbm5K+uzy8jLj4+MsLi5iMBj44IMP6OzspLq6eu97WGk0Gjo7O0lJSeHKlSuMj49TW1tLW1sbZrN5mw8l8lkGg4GioiJJ1m5tbeXNN998zOzUarVYLBZJPRSNwPcqMCAimzk5ObS3tzM1NcXm5uYPFuD/GFQqFRaLhbKyMpqamujq6qKpqenACrRFBcuDBw+4cOECLpcLk8nEzMwMAwMD5Ofny+IKo9EoleLc3BwOh4NwOHwo0WbRuOCjjz7iypUreL1eKYyiMcPq6qpkwIXDYdk8QJwrtVqNTqejvLyckydP8vbbb8veUXsJ0S+rsbERr9fL3NycrN3+9ttvycrKeqwm+mnCKzjNgnQSDocJBAKEQiGZEjWZTJSVle1KEe3oJ5VKJWVlZaSmplJbW4vb7cZqtVJdXf3UyKqIvorvWyyWHS9qP5Cenk59fT1NTU2Ew2Gmp6d/MK31JIgOf+LgtLe3U1FRQUlJyTP1IHpWaDQaOjo6ALh06RLDw8N4vV6USiXnz5+nra2N5uZmmT4R78HpdPLw4UNmZmYkOeYgBdjr9XLr1i0uXbrE9evXZSM22N4s4FEIl6yoqEhmCM6fP09NTQ2lpaX7Uh2lVqvJzc3l7bffJhwO4/f78Xq9LC8v43Q6pcvy6DsXZvPTiDriDOn1egwGAyqVSgbFdosdCa/oPytyhCJ8fpCtVJ4XBoOB4uJiOjo6SE1N5eHDh0xOTuJ0OllbW9tmwon9GgwGmZjX6XSkpqZK5s2ZM2dobGwkLS3twIvIlUqljDOo1Wpu3ryJw+HAarXKPtJWq1USR0R9sVarJRAISHLDQUP4e36/n3A4vO2ZC2smIyPjMWE0Go0UFhZSX19PUVERFouFzs5OmfLa62cvPs9kMtHS0iKbGIyPj7O6uiqJOFvPjXBlhFAKS0Gv128LiGo0mm0cZ1FKWFRUtGvlr0gcRBnMCwBhsojUg9vt5uuvv5adI71erzRzRF60tLSU/Px8jEYj2dnZ25hhW2fWHIYCEzeV0PSC5SU6fIh1iZajIyMj/PKXv+T48eO89tpr5ObmHrjpHAgEmJiY4L/+67/48ssvt5nNFouFlpYWTp8+TVFR0bb/J1qt5uXlSW7wQeRctz7jqakprl69KqvIvF4v3d3deL1e4Hvl09DQgM1mk6Wter2ewsJCqqqqZPpQo9GQmZmJ2WyWdFyFQoFard71JfB/RngfhZiQ4HK5pDYVj0KpVGI0GiWFT4ysMBgMGI3GQ53w8Ci2pjSAx24iobDW19eZnZ0lIyOD7Oxs2ajuICGCnTMzM7Lvlli3RqMhIyMDq9X6WHH6Vl/3MFrliEo6l8vF5uampMG63W5pHovKKb1eL/1WpVKJwWCQnS/FXoTF9Lz59v+zwrt12z+We9vp119U7HZ/B7GOJ61pJ+s5LCtnJ1/f7dqedy//Z4U3iSRedrw4RM0kkkhiV0gKbxJJvKRICm8SSbykSApvEkm8pEgKbxJJvKRICm8SSbykSApvEkm8pEgKbxJJvKRICm8SSbykSApvEkm8pEgKbxJJvKRICm8SSbykSApvEkm8pEgKbxJJvKR4rrZ7W/sPbW2yBX9oRCf+Fl9LYn/xaE+orUX6yfewd3h0kN4P/YxoiLB1+sJevIPn7pkZi8Xw+XwsLS3x8OFD3G637JtUXFxMfn4+2dnZB9ISNYnvsXWynt1ul+1YSkpKZOvX5Lt4dmy9rH6sh1Y4HMbj8XD16lXW19ex2WycPn16T2YrPZPwbp3q5na7mZiYoLu7m6+++oqJiQlisRg5OTkcP36clpYW2TjMZDJt6/30MmPrbKW1tTVSUlIwGo3bWp4c1roCgQDT09N89dVX9PT0YLFYOHnyJEajEavVuu+zlHYK0cd5bW2NQCCAyWSSvZ1eVIiWOKurq6yvr5OamipH3Dw6dSMUCrG0tMTAwAD//M//zMrKCqdOnaK+vv7whBe+F1yPx8Pnn3/OlStX6O/vZ2VlRTbT8ng8XLx4kVu3blFUVMSJEydobW2ltraWzMxM2QfqZRZiMczrN7/5DWq1mo6ODl577TUsFsuhddaMxWLY7Xb6+/u5desWAwMDaDQaPB4PZrOZ9vZ2ioqKXoh5RdFolIcPH/Lxxx/T39/PqVOnePfdd6mqqpLPTkwZEGanUqlEpVId2gUQi8UYHh7m97//PX19fTQ3N/P2229z7NgxdDrdtnlXU1NTfPrpp/zmN79hbGyMnJycPe3t/czCu7a2xvDwMDdu3ODevXv4/X5OnjzJkSNHyMnJIRKJMDMzw+TkJIuLi3z66acMDw/T0tJCU1MTzc3NBzIWZD8RCoVwuVz09/fj9/vZ2NjAZDLR2tpKbm7uoawpHo+zsrLCwsICKysr6PV6NBqNbLi3sbFxKOt6EjY3N7l8+TKXL1/m4cOHrK2tUVZWRm5uLmazmUQigcvlYmRkhMHBQYLBIPn5+dTX11NTU3MgA90ehRgUr9FomJiYwOVyodfrKS4uJjs7WyrFeDyOy+VifHxcDkE/c+YMb7755p6NI9218Apb3263yzm1gUCAyspK3nnnHU6fPk1+fj7RaJSpqSn6+vro6elhYGCAgYEBFhcXmZqaIhKJyP7Ch9ER8NH9xGKxXbcTFQO3PR4P8/PzhMNhzGYz2dnZhyK8opfw3NwcdrsdtVrN0aNHpZXj8Xjw+/0Hvq6nIRgMcv36dTnXeXFxEZ/PJ9+H0+nk9u3bfPHFF9y5c0eO2XnllVfIycmRvakP8uwoFApycnJoaGjgm2++YWxsjK+++oqCggJee+01rFYrfr+foaEhrl+/zuTkJHq9ntdee4133nmHzs5OTCbTnqzlmYQ3FAoxPz/PwMAAHo+H4uJizp49S3NzMzk5Oeh0OhKJBDU1NeTl5dHQ0EBPTw83btxgcHCQixcvsr6+zjvvvENHRwdZWVmH1tJTzJEJBAKkpaXtuq2r8P+DwSDLy8sMDQ3hcrkOJSgUiURYXFxkcnKSlZUVOQBNoVAwPz/P+vo6gUBg3yfs7RRivaurq6SmplJZWSljIxsbG3R3d/O73/2OL7/8Er/fL2ctb25ucubMGXQ63b6MOvkhiCFkDQ0NnDlzRs5Y+sUvfkFhYSE6nY7p6Wn+4z/+g1u3buH1esnLy+ODDz6gra1tTwe97Vp4o9EoMzMzDA4OMjU1BUBpaSlNTU0UFRVt6xafkpJCZmYmRqORzMxM8vLyyMzM5M6dO/T09BAIBFhdXaWrq4vc3FwZqDiIQy/C9263m/HxcZxOJydPnsRms+14DeKGEOkxMSJjrzTrbiFGl4oG8jabjYqKCkKhEGtra6ytrb0QgiuitaL/schONDQ0YLFYWF5epr+/n3/7t3+jr69v27pXV1cZHh7mww8/5IMPPuCVV17Z80FjPwQx+yo7O5t3331XzjAaHx/n4cOHhEIhuru7uXbtGj6fj9zcXEpLS7dNaDwU4RUP3Ol0srCwIEPfpaWl5OXlyQblj27UYDCQn58v55qq1Wq+++47xsbGto0GzcnJOVDBXVlZobe3lxs3buD1eikoKJCjG3cCn8/H1NQUgUBAjruorKwkIyPj0IIpGxsbhEIh9Hq9TNOtrq6+UBPd4fuYyeTkJIFAAPjDGMzu7m58Pp90tzwej5wmIEakiBGtW8elHCSE31tZWUlDQwO9vb3Mzc3xzTffYDKZGB0dZX5+Hr1eT15eHmfPnsVqte55EHPXwivMw+XlZWKxGFVVVVRUVJCRkfGDEUyVSkVOTo4cg7m+vk5fXx+jo6Ncu3aNzMxM2V1+Pw++UEAbGxuMjY1x5coVvv76azQaDa+++irl5eVyXMWPYWVlhfv37+P3+1EqlaSnp0vhPUiIWykajcr5OWL8pU6nk1Pp9nL64vOsNRqNMj8/L81K+D549eDBA/r6+lhcXGRxcZFgMIjFYsFqtZJIJFhaWsLn80lfPj8//9BiJSkpKZhMJo4dO0Z7ezsej4fLly9L5RKLxTAYDNhsNs6ePUtmZuaer2FXwitGPAwNDTE1NUUikaCuro7q6moyMjKeejDEA1YqlVitVhobG9nc3CQej9PT08P169cxmUxoNBoaGxv3dZxIIpFgfX2diYkJrl69yq1bt5iamiIvL49wOCznFf3YZwhBEbNrtFotWVlZlJWVHZgftlVoo9Eofr9fjuQwGo3odDrm5+cZGRlhaWlJTtQ7zPScyEOPjY1x9epVKbyrq6vcuHGDRCIhx6BYLBbOnTtHU1MTo6OjfPfddzKi39TURGFh4aEpI4VCgUqlorW1lUAggN1u5+bNm3I/YqysGMQt9iX+34EzrCKRCGtra3JGS0ZGBjabjfT0dDk06Ud/oUqF2Wymvr4er9dLKBTi3r17DA4OUlFRQUVFBenp6fuShxS+1vLyMr29vXR3dzM7OyuDEOnp6TtKP4g0wMLCgoyOiknqVqv1QFMYYlzp2toaPp8Pu93O6uoqa2tr3Llzh42NDbxeL1qtVkb3DxNCeS4sLGwzm+PxuIyEGwwGCgsL+elPf8qJEyeIxWLcvXuXYDCI1Wrl2LFj5OXlHXqqUbhK1dXVnDt3jrGxMdbW1oDvhbegoICKigpUKhULCwtsbGyg1WopKirakzOyK+ENBoPMzs7idDplkCE1NVUOrfox4RXfV6lU2Gw2GhsbZR5vdnaWwcFBamtrOXLkyL6RCAKBADMzM9y6dYvBwUE8Hg/Z2dlUVlaSm5u7IxpnJBLhwYMH9Pb2sr6+DoDNZqO6uhqz2XygAZRQKMTw8DCDg4O4XC4ePnzI8vIy4XCYubk59Ho95eXlNDc309zcTHZ29qGazmLi/dTUFCsrK9ssHaFE6+vrOXPmDD/72c9IJBJ88803jI+Po1AoqK+v59VXXyUzM/NAn/PToFAoZMpw616USiXr6+uMjIzIUatarZb8/PwdWXc7wa52L/xEcTiED/UsA5Y0Gg1paWnk5OSQlZXFzMwM09PTjIyMUFFRsee319Yg1dTUFKOjo7jdbpRKJYWFhdTV1ZGRkbGjAxGJRLh//z53796VwmuxWMjLy9s2Kf0gIHjMAwMDDA0N4Xa7CYVCcmhzTU0N586d4+TJkxQWFh74+rZCvIPp6WmZ698KvV5PfX097777Lm+99RYWi4VLly5x4cIF7HY7eXl5tLS0cOLEiX0ZqP0sCIVCTE5O8umnn2K32wHQ6XRkZ2eztLTEp59+ysTEBEePHqW+vp7s7GwZuH1e7Ep4Nzc3mZ2dZWVlBY1Gg81mw2w273oxIpUktOy5c+f4/e9/z8rKCnNzc0+dKv48CIfDuN1uvv32W7777jtmZ2dJJBIcP36c999/n9bWViwWyw+G8oWPGYlEmJ6eZnJyknA4jEajQafTbRuifFDQarUcOXKE2dlZlpeXWVxcxGKx0NjYyPnz5zlx4gTl5eWkp6cf+mhSoTzv37/P6OjotmnwJpOJ+vp6/uRP/oSOjg4UCgXd3d1cvHiR/v5+DAYDZ86c4fXXX6e+vv6F4D/HYjFGRka4du0aU1NTMsp/9OhR/uZv/gaj0Ug8HqeoqIisrCzMZvNjGZnnwa4+RZQzifRPVlYWRqPxmTSJCLdbrVaKiorQaDS4XC5mZ2e3vdS9wurqKn19fVy+fJn79++zvr4uJ5+fPXtWkkueBuEvC7N7eXmZYDAIfH9jpKen75uv/kMQLog4IBqNRjKATp06RWVl5b5NkN8txHDtsbExHA7HNvNRzBBeWFjgxo0bkmwyMjJCWloaXV1dvP7669TW1u57RmKniMVijI6OcvfuXUk7zczM5MiRI7S0tJCVlSXdS41Gs+eKfVfCK4JNOp0OvV4vK0CelaIm8sDCxPN6vbhcrj3N3wmhs9vtfPfdd3R3d7OwsIBKpaK4uJijR49SV1e3o8MdDAZZXFzk1q1bLC4uAtuFJzs7+8D9MKVSSVpaGlarVabbsrKyKCwspLCw8FCsgUch3sHa2ho9PT1MTEw8RtMMh8MsLi7y7bffkpKSwsLCgow4d3Z28md/9mccOXKEtLS0F0IRRSIRnE4ng4ODDA8PEw6HSUlJobCwkPb2diwWCxaLBdg/0tGuTpq4cYXJEo1GtxV87xaiHMxutxMIBCTdba9vr1AoxNzcHNevX2dpaQmlUklxcTHnz5+nqqrqB5XP1nSM3W7n1q1b/P73v2dycpKUlBTMZjOtra00NTWRl5d34Gwf+P7mt1qtFBYWkpmZiV6vR6lUyn0d9kEHZJnipUuXmJ2dfez7arUas9ks+QM6nY6WlhY6Ojro7OykqqoKg8Fw6IIrzoPP5+Py5cv09vbKGnaj0Uh9fT1vvvnmj7pge4FdnbSt3TG8Xi8zMzN4PB5sNhtGo3HXnOBIJILP55Obt1gs25hYe4F4PI7H42Fubg6Xy0U4HCY/P5/GxkbOnj1LcXGxXM/TlFA8Hmd9fZ2HDx9y8+ZNRkZG8Hq9GAwGCgoKOHHiBFVVVTtOl+0lxDsxGAykp6djNBqJRCIyXZSamnqoUVkRpLp//z6fffYZIyMj+Hy+x34uPz+fP//zP0er1RKNRqUPXFxcjM1meyEEV0CcqRs3bjAxMUEkEkGpVFJWVkZlZSUWi+VAnvmufoOgMppMJlZWVlheXsbn8z2TjyrYWm63W/q5OTk5FBQU7KnwRqNRJicnGRwclBzZzMxM6uvrqa+vx2q1EolE8Pv9TwzhR6NRAoEAc3Nz3L59mzt37uBwOIhEIuTm5tLU1ERrayuFhYWHWh2lUqnQarWo1WqCwaDkMguu9mEhHo+zsLDA1atX+fzzz1leXiYajaJWq9FoNAQCAeLxOGlpaXR0dFBWVoZGo0Gj0ZCRkbGnZ2EvIMoUBwYG6O3tlRFmtVrN6dOnaW5uPrDA4K6EV9QtZmVlMT8/L6txIpEI8Xh8x2aCoCj6/X4cDgdzc3PEYjEyMjL23G8UBd/9/f1sbGyQSCRQq9VotbPNXAQAACAASURBVFri8TjBYBCv1yvpeKLIQECQ+oeGhqS/LDRtfn4+bW1tFBUVHTphQEBwhDc3NwkGg3uWU3yWdYgAn+ApT09PE41GZVAtJyeHiYkJfD6fVJDFxcVkZGSg0WheiIYBjyIejzM/P8/NmzdZXFyUaTmr1UpHRwdHjx49MEtnV79Fq9WSk5NDZmamrC4aHR0lPz+f9PT0H40CCrM0Ho+zsbHBwsICU1NTuN1uLBYLR44cobGxcU9zeOLmFUEFhULB8vIyPT09ZGVlySoWYc496sOHQiFWVlYYHx/H5XLh9/tRKBRScDs7O3+QGnrQECWOLpcLt9u9L5H7nUIEdX73u9/R3d1NMBhEpVJRVVXFu+++y4kTJ/iXf/kXenp6WF5e5t///d9ZXV2VsQhRWroVWyuSANn0UBQv7KdpLcphZ2dnuXfvHj6fD4VCQWlpKe+99x7Nzc0HWpSyK+FVq9VkZWXJ8qbFxUWGh4cpLi6WVUU/doi3PoDu7m7u3btHPB6nqqpK0vf2WuNGIhFCoZB88S6Xi7t37+L1etHr9fh8Ppn6efSwRCIRWboo8s9Go5GmpiZOnTolzfwXwRcTCIVC8uZ91JI4SPj9fhYWFhgbG8PpdALfP7va2lqOHz9Oa2srXq8Xo9EoYwmJRAK32y2DVI8qcmEpLS0tEYlE8Hq92O12mpubaWpq2lfmVSwWY35+ntHRUaanpwmHw2RmZtLU1MQbb7xBfn7+gcYXdp0qSktLo7CwkPz8fJxOp7x5i4qKsFgspKamPlH7CW25vr7O0tISN27c4Nq1a8zOzlJQUEBbWxvV1dV7TpxXKBSyMZzX65Uc2snJSebm5iS9LRaLPTFgtfVrwq/My8ujvb2d1tbWFyIVA99nArRaLSqVShYpiOqWw8Ly8jJ37tyRjDyDwUBlZSVtbW3U1NSQmZnJm2++iVqtJiUlhQcPHjAzM4Pf78dut3Ps2LHH3JGNjQ1WVlaYnJyUVtH09DRvvPEGGo2GkydP7psARaNRRkZGuH//vmTnCZLRsWPHDjz/vOtos1qtprS0lNraWhYWFrDb7fT19UkGSXFxseygKA616BLo9XoZHR3l9u3bfPbZZ7hcLvLy8jh//jxnzpyhpKRkz9uaKJVK8vLyKCkpYWRkRBIrBB/1x/Yr1qLVajGbzdhsNo4cOUJzczNFRUWHGqTaCr1eL5Xn/Py8jDbvB1ttJ0gkEoyOjvKrX/1K3rpCWM+fP095eTkqlYrMzExef/11ysvLuXnzJnfv3mVkZISvv/6aL7/88rEsgGh+ICp0xKVw5coVSkpKaGpq2jfqZDgcZmBggNHRUeLxODabjddff5133nmH9PT0Az8Hu1ZRGo2G2tpaQqEQWq2WCxcuMDMzwyeffILL5aKxsZHq6mpycnKwWCwkEgm8Xi8TExMMDAxw584dRkZGcLvd5Obm0tjYSGdnJ/n5+fvCu1WpVNTV1dHe3s7Kygp2u31HB1qhUGAymWTONDs7m4qKChoaGmhubqauru6FEVzBFTcajRgMBvR6vfz7sKwC0SLV6XTK520ymaitrSU3N1e+a4VCQXp6OrW1tWRlZVFXV8f9+/dlz7OlpSW8Xu9jVpHgxotS0urqakpLS/fVbI3FYoyPjzMzM4PZbOb999+ns7NTNp574YVXqVRKTnIsFpPBn5mZGXw+HyMjI5SWlpKdnU1mZqZk1kxNTTE2Nsb8/DyRSISqqiqOHz/OmTNnqKqq2tPePts2qFJRWVlJZ2cnDodDBhp+DGq1moqKCunTVlRUUF1dTWVlJcXFxZjN5hdCcAUEdVWlUmEwGDCbzZhMpkPL8YpyuaKiItbX11GpVJSWllJaWorZbN72c4K5ZzKZyMjIoKCggCNHjtDa2sr09DQOh2Ob765QKCQxJTMzE7VaTUFBAUePHt1XzrO45UWh/dGjRyW19zDOwjO/2dTUVMrLyzl9+jQKhYJ79+6xtLSE2+2mr69PHiT43lcQZk5aWhrFxcV0dXXR3t5OTU0NaWlp+5YWSElJITs7m+bmZtbW1tDpdHg8nh/9f2q1mtbWVmpqatBoNFRVVZGbm4vRaNx1l8mDQEpKChqNBr1eT1paGhkZGYdO0CgoKODcuXNotVr0ej3t7e2yu8eTIM6HyWSivLycU6dOyaj5o8Kr0+lkDXZKSoqk2e7nfkWNrs1mQ6VSYTQaD7VKS5F4Bm6j8ENEtG9paYmxsTHu37+P3W5naWkJu92Ow+GQL6SkpISqqioaGhqorKyURfc7rQV+XoTDYTY2NtjY2NhREEdod9EJX6PRyKjyi3Tjwh8i+A6Hgy+//BKHw0FWVhYdHR2Ul5eTmpp6KGsKBAL4fD78fr9kgVkslh1H5wU760nBRCGwB2muhkIhrl69yieffMLExAT/8A//IPuPH8aZeCbhFRBmRDAYZHV1leXlZdbX12VXB6/XK4UgMzOTnJwccnNz5a3wv2HsyYsA0cJWVDz5/X7Z/CwtLe2FYym9rIjFYjgcDsbHx3E4HHR0dJCTk3Noz/e5hXfrvx/9s+0X/f831tZbNim4e4Otz/pR8/JFtBReVmwdMCZGrxzm830u4U0iiSQODy9W1CWJJJLYMZLCm0QSLymSwptEEi8pksKbRBIvKZLCm0QSLymSwptEEi8pksKbRBIvKZLCm0QSLymSwptEEi8pksKbRBIvKZLCm0QSLymSwptEEi8pksKbRBIvKZLCm0QSLymSwptEEi8pDq/BURKHClFYHgwGCYfDsrPJYSEejxONRuVUi60TEJJ4Mv7XC++j3T72quvBkzqFPOnfLyoSiQR+v5+vv/6a+/fv87d/+7ekp6cfyjrg++kKU1NT9Pf3o9FoaGxspLS0VDar+7GeES/DM99r/K8XXjGO0eVyEQgEUKvVqNXq57pl4vE4brebtbU1AKxWK9nZ2WRlZWEwGF7IAVmPIhwOMzExwVdffUVPTw9//dd/fWjCu7m5yfj4OB9//DE3b94kMzOTWCxGTk7Otk6T4XCYYDAoR9eIbpmH1Xr1sPHcwru1r4+AMH+i0ehTNaZo37nf3SNFo+zu7m7cbjcGgwGTyfRc/X0jkQgPHjxgYmKCRCJBU1MTx48fp62tjYKCghdeeIXA3L17l/Hx8UOdJBiPx3G5XPT09PDRRx8xOztLWVkZFRUVnDt3Tv5sPB6X0xydTieJRIKsrCzy8/OxWq3/J83rPRHe1dVV2dU+kUgwMTFBb28vExMTTx0potPp6Orq4ty5c3I41H40pguHw3R3d/PLX/5SNv8W/tSzQhw4cfMuLCwQCATIzs4mJyfnUHv57gThcBiHw8Hly5eZnJykoKDgUA5/IpFgY2ODe/fucfHiRebm5tjc3AR4bBpFOBzmwYMH/M///A+XLl0iFotx+vRpPvjgAzo7OzGZTAe+/mfB1imHYnSLaDy/2wkczy284ha6e/euvGnn5uYYGhpifn7+B4VXdOBramrCYrFgNBr3fM6MGDSmVqtxu92EQqE9uemDwaAc4+FyufD5fE8dVvaiIRwOy9EvGo2G8vLyQ2lfGggEuHLlCl9++SUDAwOEQiGsVisNDQ2cPHlyW7/pWCzG7Owsw8PDTE5OEo/HKS8vZ2Nj41AnIe4WsViMtbU1Hj58yNDQEE6nk/T0dJqbm2ltbd2V4n8m4RUDnMUE9hs3bvDRRx/JWbDr6+usrq6ysbEh5+aIoVDhcFhOQ7927RqhUAifz0d1dTVlZWXYbLY9NTvFPNiWlhY8Hg9OpxOtVisPhhiHKdb1QyZkSkqKvLW1Wi06nQ6NRoPNZsNms+3r5Ie9hJiN7PP5yMzMpKam5kCFVzRTd7vdfPLJJ1y+fJmFhQVUKhU1NTWcPn2a9vZ2TCaTNK3X19cZHx9ndnaWaDT6UprJIkg4MDDAl19+yaVLl1heXpbKs7GxcX+FV1z5TqdTjsns6elhZGREPlTxYPV6PdXV1ZSXl6NQKIhGo9jtdqanp3E6nSwsLBAMBnE4HHR2dqJUKsnMzESn0+2Z6SwGjb3xxhtEIhGGhobIy8ujoaGBlJQUHA4HMzMzOBwOxsbGnjjUSkCn05GZmUl2djYqlQqdTofFYqG1tZW2tjaKiope6AbnwmRbWVlheHiYjY0NysvLKSwsPLCxKGK6g9vtZmRkhL6+PhYXF1EoFGRmZnLy5Emam5vlqFfhn09NTTE4OMjc3ByxWOzQeybvFiItNz09zUcffcTVq1dZWVkhPz+fysrKZ/Lbd/XGhMZ0Op309vZy8+ZNZmZmGBkZIRQKyReQn59PZmYmWq2WY8eOUVdXRzwex+FwcOfOHZaWllAoFIRCIZxOJ9FoFL1eT35+PgUFBeTl5cnD9LwvJyUlhfT0dOrq6qQlUFRUxOnTp1GpVNJ8XF5e5uOPP2Z0dBSfz/eYKSbGttTV1dHR0YHZbEaj0WA2m6mqqqKgoID09PQX9uYVghsKheRQdGF6NjQ0HJjSCYfD3L9/n+vXr9Pb28v8/Py2cZlnz56loqICtVq9LaB18+ZNZmdnpasiRtBotdoXQoC3Dhp4VKkIuenr6+M3v/kNV65cwe/309bWxvvvv09lZeUzKf5dCa8wdXp7e/nmm2+4desWDoeDjY0NLBYLZWVllJWVUVNTQ15eHhqNhoqKCoqLi+Vs04GBASKRiNxoJBKRWjgnJ4f09HTOnj2LxWLZE0EQ4y9zc3OlT5GdnU1NTQ0qlYpgMIjf72d1dZVAIIDZbGZycpLl5WVCoRDRaHTbZxkMBqqrq+WsJY1GQ3p6Ojqd7oUZ+fk0xGIxPB4PExMTPHz4EPh+GFhxcfGBKZ1IJMLIyAgXL16kv78fn8+H2Wymvr6e9957j8bGRiwWC/AH92xubo7vvvuOxcVF+TmpqakUFha+MNZOPB5neXkZtVpNVlbWtnMQj8eZm5vj2rVrfPrpp9jtdhoaGujq6uKtt94iOzv7mayIHQmvELRgMMjc3By3bt3i9u3bTE1NEQgESEtLo7a2lldffZWysjKKi4uxWq2oVCrS09Mxm81sbm6iUCjw+/34/f5tN1s8HsfpdNLX14dOp6OkpAS1Wk1aWtquNvND0Ol05ObmkpKSIv3wlJQUdDodZrOZjIwMXnvtNdLS0rh79y4PHjzA4XCwtrZGOByWkdHl5WUcDgcVFRVkZGSg1+vlZPcXHZFIhIWFBSYmJlhbW8Nms5GRkXFgt1c0GsXr9TI/P8/8/Dxra2skEgny8vJobm6mpaWFzMxM+fNiWJndbmdkZERG91UqFUVFRdTX11NRUXFo0X2hXPx+Pz6fj97eXkwmkwzAqlQquYe7d+9y9+5d7HY7Op2Oo0eP0tzcTGpq6jOb/zu+eUWUbHh4mLt37zI2NkYoFCIzM5MzZ87w9ttv09raKqPG4kAolUrpB4tbTiTZtz6Ezc1N5ufnUavV5ObmolAoaGpq2rMbQalUyvyumGUrICbONTY2kp2dTV1dHePj49y+fZve3l6cTic+n4+NjQ1GR0f55JNPcLvddHR0yEHi4nNfRGyNU9y8eZOhoSGKior46U9/yunTp3c8te95fj98H5W/cOECly5dYmpqinA4jNls5uTJk/zkJz8hMzPzsfctplGGw2Gp8PV6PX/0R39Ea2vrnsZHdrIPYcrH43HC4TAjIyNcvXqVa9euMTY2htVq5a233uLnP/85NpuNtbU1xsbG+NWvfsXt27fR6XScOXOGN954g4aGhqeOO90JdiS88XictbU1JiYm6O/vx+VyodFoyMjIoLm5mfPnz8vZqxqNRgrskzYvhjQ9Co1Gg9VqpaioaF9uAqHdtmrpR3+HmKxnMpnIz88nNTWVjIwMFhYWGBgYwG63s76+ztDQENFolI2NDZxOJw0NDRQUFGCxWA5kXOmzIBwOy1SL3W6nuLiY+vp68vPzD0TpRCIRnE4n169fZ2JigmAwiNFo5K233qKrq4vS0tLHlIjw0UV2QkCpVGK1WuVA9oMUXr/fL+MkMzMz9PT0cOvWLSYnJ1lbW8PtdmOz2Xj//fdJTU1lcHCQjz/+mL6+PtbX1ykuLubMmTPU1tY+92jQHQlvLBZjZmaGmzdvcvfuXSKRCBUVFZSUlNDV1cXJkycpLS19LGIpFia0lMiNPiq84mU0NDTQ2dlJRUXFY37DXuFpnym+bjAY5EhSvV5PQUEBS0tLmEwmenp6mJ2dxeVyEQ6H8Xq9LCwssLKyQltbG0eOHDl0gv/TsLm5yf379yWjqri4WCqo/UYikZA30MDAAC6XCwCj0chPfvITTp06JRXfVghrYXZ2VqYhlUolRqORtLS057q1ngXxeBy73U5/fz+3b99mZGSE4eFhFhYWpHLZ2NjA4XAQDAZZXFzkxo0bfPbZZ9jtdgoLCzlz5gynTp2ioKDguUlJOxLeaDTK0NAQ33zzDePj41RXV9PR0UFrayutra0ydfLoIoSQhsNh3G43y8vLeL3exyK5woc5ceIEXV1dcnr6Qd9gWx+mWq2mqKiI3Nxc1tfXJYHkypUrLC4usr6+zsOHD7Hb7bhcLvx+PwaDgZqaGpnmeBEgrB2Rj19aWqKkpISTJ0/um4J8FPF4fJv1EgwGUalUmM1mysrKyM3NfWxWs0itDA4OcuPGDfx+PwBms5ni4mIKCwsxm80H+pyj0ShjY2N8/vnnfPHFF6yvr5NIJFCpVJIxtXVW8vj4OLdu3cLpdKLRaDh16hR/9Vd/RU1NjeQ+PA92fPPOz88zPj6OXq+nrq6Ozs5OGhsbycrK+sFoXzgcZnl5mVu3btHX18fy8vJjRAhx8xYVFWGz2TAajftmygmF8rSqoK1/q1QqlEolGo2G9vZ2lEolqampPHjwQJqfKysr3L9/X05+T0tLIz8//0CCQFv38kNafHV1lfHxcYaGhlhfXycvL09aCQeFSCRCMBiU7760tJS33nqL3NzcbYp/q8J/+PAhd+/eZXh4WDLj8vLyaG9vp6CgAKPRuO/r3vqMg8Egd+/epa+vj9XVVTQaDdXV1TJD4XA4ZIBqdHRUZlei0SivvPKKTIOJYOnzYsfR5o2NDTY2NrDZbOTm5lJQUPCjU8GFmXH37l0uXbrEgwcP8Hg8T8yh6vV69Hr9gQR+gsEgXq+X1dVVYrEYaWlpT9zL1oHg2dnZtLS0kJqaSmlpKampqXR3d7O8vMzq6irDw8Okp6dTVVWF0WgkJydnX/cgcoebm5tsbm7KqPmjPreoqpqammJ1dVXeXDab7bmKM3a7VsFkE1zetLQ0ysrKttFhhaBEo1FWV1e5fv26FBRApvvOnTtHRkbGgaWIRG78zp073Lhxg7m5OZRKJaWlpXR1dZGWlsb6+jorKyvysvr888+Znp5mY2ODoqIi3nrrLU6cOIHJZNqz872rPO9OJq1vvdEikQhjY2NcuXKF7u5uSeB/9DPVajVarfZAXobwv0ZHRxkaGiIUClFVVcXJkye3+V2P7lGpVJKbm4vZbMZms6FQKAgEAkQiEVwuF263m6GhIfr7+ykuLt434d2aH19ZWWFqagqn00l+fj51dXXbzDEh4A6Hg6mpKRKJBGVlZVRVVe2Z9t/pmldXV1laWiISiZCSkoJWq0Wv18s1CHMzGAzi8XgYHx/nu+++Y2Jigng8jlqtpqSkhLa2Ntra2jAYDAey7ng8zurqKnfu3OE///M/ZeApIyODtrY2urq6SCQSXLx4cRuL8OLFi4TDYbKzs2ltbeXMmTNUVFTsLfV3Nz8sfNf5+XncbjexWOyJJo8Ipa+urnLjxg0uXLjA4uKiZMdsRWpqKlVVVdTV1ck87H4iHo8zPT3NhQsX+Oabb/D7/bS3t6NWqzl+/DhpaWlPNEFF2stkMsnIqLASrl69itfrZWlpicuXL9PY2Eh9ff2+mM3iFpuamuLbb7/lt7/9LS6Xi7fffpu/+Iu/oKamRkbUY7EYLpeLO3fucOXKFVJTUzl79iydnZ17XgDyQ4jH44yOjnLt2jUCgQBGo5H8/Hx5mIU57fV6GRgY4Pbt29y5c4eenh6ZC05JScFkMpGenv7cUdqdQkSX+/v7uXDhAr29vayurmIwGKirq+Mv//IvaWxspK+vb9t6otEoPp8PrVZLVVUVH3zwAcXFxXt+Oe2aHhkIBGQJYCQS2ZZ6ETm5UCiE3+9neHiYiYkJHA7HEwVXrVZjs9k4deoULS0t5OXl7XukNpFI4PV6mZ2dZWFhgY2NDYxGI1evXiU/P18W6z8t8S/STdnZ2ZSVlVFSUsKdO3fwer1sbm4yOzsryQR7vW74/mBMT09z8eJFLly4wIMHD2SefKs7It7F+Pg4w8PDeDweTpw4QX19PVlZWY8FiPYTQuH4/f5tnTNmZ2cJhUKoVCp8Ph/Dw8M8ePCAsbExFhcXHwtuihTkQcUSAoEA/f39fPvtt3R3d+P1eoHvzffm5maKioqe6ncrlUqqqqo4ffr0NotoL9e+I+FVKBRotVq0Wi3BYBCXy8XCwgJ2u10eBPhe0/t8PlwuF3a7natXr8pgw6NISUmRXGGRsM7IyNizjf3YfoSJEwqFmJmZ4fLly1RUVEjGmMhZPymCLlg1ohppq8URDAa3USr3EtFolJWVFT777DMuXLhAX18farWauro66urqtpn9gsra3d3N5OQkFouFN998k7q6ugPzdQWEwtPr9YTDYcLhMFNTU3z++edyLV6vl+HhYZaXlwkEAodeWil816+++opvv/2WyclJEokEer2eiooK2tvbnxrtVigUmEwm2traOH/+vLwU9lrp7Eh4U1JSyMjIwGazMTc3h8PhYGhoSAauxC0ViUSw2+1MTk4yOTnJ1atXt+XAxMYEqbygoICGhgaOHTuGxWI5kJtAoVCQlZVFeXk5aWlpbG5usr6+zsjICJcuXWJxcZG8vDxOnDjxxBK/rRS/W7duce/ePTY2NgDQarXk5OTsW2G4YLj96le/YnJyEqVSSU1NDX/8x3/MuXPnyMnJQalUSpfl/v373Lp1i42NDZlDF4X3B5liUSgUZGRkUFBQwObmJqFQiImJCebm5rZxAQTzTnRY8fv9T7TY9hsiLjI0NMS1a9eYnp4mkUigVqspLCzkyJEj1NfXP9Xv1ul0lJWV0dzcTE1Nzb4pyx0Jr1KppLq6mlOnThEOh/F4PNy+fRu/378tSiuc9ampKRYXF2Xx+1aIdEpGRgYnTpygtbVVRkkPAikpKeTn59Pe3s6DBw9Qq9U4HA78fj/ffvst9+7do6CggLW1NbKysh4zn8PhMEtLS4yOjjI4OMjU1BTBYJCUlBSysrI4fvw4eXl5ey4c8Xic/v5+fv3rXzM9PU0oFOLo0aP86Z/+KefOnaOsrAyNRiP9tHv37vGLX/yCwcFBGhoaOH/+PFar9VBI/CkpKZSXl9PW1sbCwgLhcJhIJEIkEtkWBFUqlZjNZhoaGmhoaOCLL75gZmZGniERQNrvtj2JRILJyUm+/PJLJiYm8Pv96PV6bDYbP/vZz3jjjTcoKiqSltnWThg6nY7y8nJ+/vOfc/bs2X2t8d6R8KpUKqqrq+nq6iIYDDIwMEAwGJTVKaKDRiwWY319HY/Hs82/ERBFB3V1dZSUlHD8+HGOHDlyoA3EFAoFFouFI0eO8Oabb5Kbm8u9e/eYmJjA6XTidrtxOp0EAgFMJtNjrLFIJILX65XkjEAgIC2T2tpaOjo6yM/P3/N1JxIJ3G434+PjUllYrVaampooKirCYDAQj8dlW5kvvviCe/fuybzo8ePHD408IvKzTU1NjI6OyiIDofBE8z6j0Uh1dTUtLS3k5OTQ19eH3W4nFArJlNf09DTj4+PU19fvK8NKRMRTU1MxmUxUVVXR2trKu+++K9OBKSkpspfWyZMnUSqVJBIJjh07xvnz52WBzX498x3fvDabjdbWVgKBAKmpqTLsL16EEGChHR81FZRKJdnZ2TQ2NvLKK69QVVW1L50zdgKtVovNZuPcuXPk5uai0WjkjRoKhQgGg/T29j6Vh7214Z5arcZsNlNRUcHx48c5duzYtsqYvYJo52O1WtFoNMRiMTQaDampqajVaqLRqGT1XLx4ke+++46UlBQ6Ojo4ffo0xcXFB1Zw/6S1Z2RkcOTIEc6dO4fRaGRubg61Wk15eTlVVVWUlJSQnp5OS0sLJSUleDweCgoKmJiYYH19nVgsxvLyMr29vWi1WhKJBCaTCaPRSG5u7p5aFAqFgtzcXI4fP47H48FgMNDe3s7p06fJy8t7jICTm5vLW2+9Jc9ybW0tJSUl+x7RVyR2EBkQQin8vZWVFQKBAF6vl9/+9rdMT0+zubn5g0EGrVZLXV0d586dk9VHogXrYdwGYj+hUIiBgQG+/vprhoaGZPuelZUV1tbWWF9f39YFU6lUotPpUCqVGAwGsrKyqKys5OzZs3R1dVFcXLwvRJNEIsHy8jJ9fX384z/+I9PT0zQ2NvL3f//31NbWEovFePjwIf/6r/9KX18foVCIlpYW/u7v/k7WMR8WZVMoOxHo29jYkNaDTqdDr9ej0+nkbadSqfD7/Xz11Vf893//NxcuXJA/L/LDot67vb2df/qnf9pTa0dYkaIoYmun0yfROLc2jAdktmK/iyZ2HG0Wdn16ejoGg4FYLEY4HEatVuP1en+wzSt8f+izsrIoKCggMzPz0Gtgt9Ifq6ur0ev1dHR0sLa2htPpZGxsTPZM8vv90s/SarVYrVYZnKqtraW5uVl209hPhpgw93/605/yySefMDMzw4cffkhJSQmhUIjp6Wnu3buHwWDg+PHjdHV1UVJScuDR5Uch/FnR8ystLU0yrcT3Hj3ognrY0NDA0NAQk5OTRCIRAoGAvDgUCgUlJSV7Ht3f6sP+GAVTrF+pVB74c941w0psSuDkyZO7+oUvCmFfQLTuycjIkHls4VtNT0+zuLi4rXmARqMhMzMTjUZDVlYWixXXnwAAAVZJREFUFRUVVFRUHEjrUaEwXnvtNebm5vjss8/48ssvMZvN0hqoqKigsbGRkydP0tTUtC8m/PNga4+zH4JSqaSgoID29nZmZ2dZXl6W+XPxvdTUVMrLy1/4Vrv7hV0L706+9rLgUQZVIpHAYDCg0+kkl3mrLy9+TvjoSqVSdpPc7+cgPl+lUkmSgOgwEY/HsVqtHDlyhK6uLmpqaiR3+UUqT9zNMxI+/rFjx1hZWWFoaAiHwwF8r8TOnz9PYWEh9fX1L03P5r3GjnzeJF4cCJKI2+3G5XLJsjS9Xo/ZbMZqtWI0Gv9XjAARcQmPx8PMzAzBYBD4gwum1+sxGo2kp6cfWjDuMJEU3iSSeEnxYjZdSiKJJH4USeFNIomXFEnhTSKJlxRJ4U0iiZcUSeFNIomXFEnhTSKJlxRJ4U0iiZcUSeFNIomXFEnhTSKJlxRJ4U0iiZcU/x8jtjbH2bGkpwAAAABJRU5ErkJggg==;" vertex="1" parent="EI2d-nt05hpr1vi_tLHB-64">
          <mxGeometry x="30" y="110" width="189" height="185.84" as="geometry" />
        </mxCell>
        <mxCell id="EI2d-nt05hpr1vi_tLHB-61" value="" style="group" vertex="1" connectable="0" parent="EI2d-nt05hpr1vi_tLHB-64">
          <mxGeometry x="269.99947368421044" y="150" width="104.81" height="135.84000000000003" as="geometry" />
        </mxCell>
        <mxCell id="EI2d-nt05hpr1vi_tLHB-62" value="" style="shape=image;verticalLabelPosition=bottom;labelBackgroundColor=default;verticalAlign=top;aspect=fixed;imageAspect=0;editableCssRules=.*;image=data:image/svg+xml,PHN2ZyB2aWV3Qm94PSIwLjAwMzM0NzM5Njg1MDU4NTkzNzUgMjkuNDk5OTE3OTg0MDA4NzkgMTI3Ljk3NjY3Njk0MDkxNzk3IDY4Ljk5NjY3MzU4Mzk4NDM4IiB4bWxucz0iaHR0cDovL3d3dy53My5vcmcvMjAwMC9zdmciIHdpZHRoPSIxMjcuOTc2Njc2OTQwOTE3OTciIGhlaWdodD0iNjguOTk2NjczNTgzOTg0MzgiPjxwYXRoIGQ9Ik05OC4xOCA4OC4xM2MxNS42My0xNS42MiAxOC4yMy0zOC4zNiA1LjgtNTAuNzgtMTIuNDMtMTIuNDItMzUuMTctOS44Mi01MC44IDUuOC0xNS42MyAxNS42Mi0xMS4xMSA0NS40OC01LjggNTAuNzggNC4yOSA0LjI5IDM1LjE3IDkuODIgNTAuOC01LjhaIiBmaWxsPSIjZjg5OTM5Ii8+PHBhdGggZD0iTTM0LjA0IDY1LjU2Yy05LjA3LTkuMDYtMjIuMjctMTAuNTctMjkuNDgtMy4zNy03LjIxIDcuMjEtNS43IDIwLjQgMy4zNyAyOS40NiA5LjA3IDkuMDcgMjYuNCA2LjQ0IDI5LjQ4IDMuMzcgMi40OS0yLjQ5IDUuNzEtMjAuNC0zLjM3LTI5LjQ2WiIgZmlsbD0iIzM0OTljZCIvPjxwYXRoIGQ9Ik0xMjMuODIgODUuNjhjLS41OCAwLS44Ny0uMzUtLjg3LTEuMDYgMC0uNTMuMzUtMS42OSAxLjA0LTMuNDYgMS4wMS0yLjU5IDEuNTItNC40NSAxLjUyLTUuNTggMC0uNjgtLjItMS4yNS0uNi0xLjctLjQtLjQ1LS45LS42OC0xLjUtLjY4LS44OCAwLTEuODkuNDEtMy4wMyAxLjI0LTEuMTQuODMtMi42NyAyLjMyLTQuNiA0LjQ4LjI4LTEuNC44OC0zLjMyIDEuNzgtNS43NmwtNC4zMS44M2MtLjk4IDIuMTItMS42OSA0LjAzLTIuMTMgNS43My0uMjIuODMtLjM4IDEuNjktLjQ5IDIuNTYtMS4zNSAxLjMxLTIuMjMgMi4xLTIuNjEgMi4zOS0uMzkuMjktLjguNDMtMS4yMi40My0uMzkgMC0uNy0uMTUtLjkzLS40NC0uMjMtLjI5LS4zNC0uNjktLjM0LTEuMTggMC0uNTMuMS0xLjE0LjMtMS44M3MuNjQtMS45OSAxLjMzLTMuOWwxLjY0LTQuNTItMS42MS4wN2MtMS40NiAyLjc4LTMuMTcgNC4yOC01LjEzIDQuNDkuNTMtMS4zOC44LTIuNDQuOC0zLjE4IDAtLjk0LS40Ni0xLjQxLTEuMzgtMS40MS0xLjA5IDAtMS45NC41MS0yLjU1IDEuNTQtLjYyIDEuMDMtLjkzIDItLjkzIDIuOTFzLjUxIDEuNTUgMS41MiAyYy0uNjYuOTctMS40IDEuODgtMi4yIDIuNzQtLjk1Ljk0LTEuNjkgMS42Ni0yLjIzIDIuMTMtLjU1LjQ5LTEuMDYuNzMtMS41Mi43My0uNzIgMC0xLjA4LS41MS0xLjA4LTEuNTJzLjQtMi43NSAxLjItNS4zNWwxLjU2LTUuMThoLS45OWwtMy42MSAyYy0uNTktMS4zNS0xLjYyLTIuMDMtMy4wOS0yLjAzLTEuMTcgMC0yLjUxLjUtNC4wMyAxLjQ5LTEuNTIuOTktMi43NyAyLjI4LTMuNzQgMy44OS0uNzUgMS4yNC0xLjIxIDIuNTQtMS4zOCAzLjg4LTEuMzYgMS4zNi0yLjM4IDIuMjQtMy4wNiAyLjY1LS43MS40Mi0xLjQ1LjYzLTIuMjMuNjMtMS45OSAwLTMuMjItMS4xNS0zLjY5LTMuNDUgNS4xOS0xLjUyIDcuNzgtMy41IDcuNzgtNS45NCAwLS45Mi0uMzMtMS42Ni0uOTktMi4yMy0uNjYtLjU3LTEuNTQtLjg1LTIuNjMtLjg1LTIuMTEgMC00LjAzIDEuMDEtNS43NiAzLjAzLTEuNTcgMS44My0yLjQyIDMuODYtMi41NyA2LjA5LTEuNDMgMS40MS0yLjUxIDIuMzQtMy4yMSAyLjc5LS43Mi40Ni0xLjQuNjktMi4wMy42OXMtMS4xMy0uMy0xLjUtLjljLS4zOC0uNi0uNTctMS40MS0uNTctMi40NCAwLS40Ni4wNS0xLjMuMTQtMi41MyAyLjM2LTIuNTYgNC4wOS00Ljk2IDUuMi03LjIxIDEuMTEtMi4yNSAxLjY2LTQuNTggMS42Ni02Ljk4IDAtLjg1LS4xMS0xLjUyLS4zMy0yLjAyLS4yMi0uNS0uNS0uNzUtLjg0LS43NS0uMDcgMC0uMTguMDItLjMyLjA3bC00LjQ5IDEuNjZjLTEuNTMgMi45Mi0yLjg0IDYuMTEtMy45MSA5LjU4LTEuMDcgMy40Ni0xLjYxIDYuNDMtMS42MSA4LjkgMCAxLjY1LjM4IDIuOTYgMS4xNiAzLjk0Ljc3Ljk4IDEuNzkgMS40NyAzLjA1IDEuNDcgMS4xIDAgMi4yNS0uMzUgMy40Ni0xLjA1IDEuMjEtLjcgMi42MS0xLjc5IDQuMjItMy4yNnMwLS4wMiAwLS4wMmMuMTkgMS4xMS42NSAyLjA0IDEuMzcgMi44Ljk5IDEuMDIgMi4yOCAxLjU0IDMuODggMS41NCAxLjQ0IDAgMi43NS0uMzUgMy45NC0xLjA1IDEuMTUtLjY3IDIuNDQtMS43MiAzLjg4LTMuMTEuMTIgMS4wNC40NiAxLjk0IDEuMDMgMi43MS43My45NyAxLjYxIDEuNDYgMi42NCAxLjQ2czIuMDktLjQgMy4wOS0xLjJjMS0uOCAyLjA4LTIuMDUgMy4yNi0zLjczLS4xMSAzLjI5Ljc3IDQuOTMgMi42MyA0LjkzLjc0IDAgMS41Mi0uMjcgMi4zMy0uODFzMi4xNi0xLjcxIDQuMDUtMy41YzEuNjQtMS42MiAyLjg0LTMuMTQgMy42MS00LjU2IDEuMDQtLjE4IDEuOTktLjQ5IDIuODYtLjk0LTEuNzggMi43OS0yLjY3IDUuMDItMi42NyA2LjY4IDAgLjkuMjUgMS42NS43NCAyLjI1LjQ5LjYgMS4xLjkxIDEuODIuOTEgMS41NyAwIDMuOC0xLjQxIDYuNjgtNC4yIDAgLjIyLS4wMi40My0uMDIuNjUgMCAuNzguMDcgMS45Ni4xOSAzLjU1bDMuOTEtLjkyYzAtMS4wNi4wMi0xLjkuMDUtMi41My4wNi0uODQuMTgtMS43Ni4zNS0yLjc2LjExLS41OS4zOC0xLjE1LjgxLTEuNjhsLjk5LTEuMTVjLjM2LS40Mi43MS0uOCAxLjAyLTEuMTMuMzctLjM5LjctLjcyLjk5LS45OS4zMy0uMjkuNjItLjUzLjg3LS42OS4yNy0uMTYuNDktLjI1LjY1LS4yNS4yOSAwIC40NC4xOS40NC41N3MtLjI4IDEuMjYtLjgzIDIuNjVjLTEuMDQgMi41OS0xLjU2IDQuNTItMS41NiA1Ljc4IDAgLjkzLjI0IDEuNjcuNzMgMi4yMy40OC41NSAxLjEyLjgzIDEuOTEuODMgMS45NCAwIDQuMjgtMS40NCA3LTQuMzFWODIuM2MtMS45MyAyLjI3LTMuMzIgMy40MS00LjE4IDMuNDFabS02NS4yNi04LjI5Yy44LTMuOTEgMS42Mi02Ljk0IDIuNDUtOS4xMS44My0yLjE3IDEuNDctMy4yNiAxLjktMy4yNi4yIDAgLjM3LjEzLjUuNC4xMy4yNi4xOS42Mi4xOSAxLjA1IDAgMS40OS0uNDYgMy4yNi0xLjQgNS4zMy0uOTMgMi4wNi0yLjE1IDMuOTMtMy42NCA1LjU5Wm0xMS43OS0uOThjLjcxLTEuMTkgMS40NS0xLjc4IDIuMjMtMS43OC44MiAwIDEuMjQuNTcgMS4yNCAxLjcgMCAyLjI5LTEuNTEgMy44NS00LjUzIDQuNyAwLTEuOS4zNS0zLjQ0IDEuMDYtNC42MlptMTcuNDggNS44NWMtMS4wNCAyLjAxLTIuMTYgMy4wMS0zLjMzIDMuMDEtLjQ4IDAtLjg4LS4yLTEuMTktLjU5LS4zMS0uMzktLjQ3LS45MS0uNDctMS41NSAwLTEuNjguNTMtMy41MyAxLjU4LTUuNTMgMS4wNS0yIDIuMTctMyAzLjM1LTMgLjQ5IDAgLjg5LjE4IDEuMTguNTYuMjkuMzcuNDQuODkuNDQgMS41NSAwIDEuNy0uNTIgMy41NS0xLjU2IDUuNTZaIiBmaWxsPSIjMDEwMTAxIi8+PHBhdGggZD0iTTc1LjQ2IDY0Ljg4Yy4xNS4yMS4yMi40OC4yMi44cy0uMDkuNjEtLjI3Ljg4LS40NC40OS0uNzkuNjRjLS4zNC4xNS0uNzMuMjMtMS4xNi4yMy0uNzIgMC0xLjI2LS4xNS0xLjY0LS40NXMtLjYyLS43NC0uNzItMS4zM2wuOTMtLjE1Yy4wNS4zNy4yLjY2LjQzLjg1LjI0LjIuNTcuMyAxIC4zcy43NS0uMDkuOTYtLjI2Yy4yMS0uMTcuMzEtLjM4LjMxLS42MiAwLS4yMS0uMDktLjM4LS4yOC0uNS0uMTMtLjA4LS40NS0uMTktLjk2LS4zMi0uNjktLjE3LTEuMTYtLjMyLTEuNDMtLjQ1cy0uNDctLjMtLjYtLjUzLS4yMS0uNDctLjIxLS43NGMwLS4yNS4wNi0uNDcuMTctLjY4LjExLS4yMS4yNy0uMzguNDYtLjUyLjE1LS4xMS4zNC0uMi41OS0uMjcuMjUtLjA3LjUyLS4xMS44MS0uMTEuNDMgMCAuODEuMDYgMS4xNC4xOS4zMy4xMi41Ny4yOS43My41MS4xNi4yMS4yNi41LjMyLjg2bC0uOTIuMTJjLS4wNC0uMjgtLjE2LS41MS0uMzYtLjY3LS4yLS4xNi0uNDgtLjI0LS44NS0uMjQtLjQzIDAtLjc0LjA3LS45Mi4yMS0uMTguMTQtLjI4LjMxLS4yOC41IDAgLjEyLjA0LjIzLjExLjMzLjA4LjEuMi4xOC4zNi4yNS4wOS4wMy4zNy4xMS44My4yNC42Ni4xOCAxLjEyLjMyIDEuMzkuNDMuMjYuMTEuNDcuMjguNjIuNDlabTQuNDcgMS40NGMtLjI1LjIzLS41NS4zNC0uOTIuMzQtLjQ2IDAtLjgzLS4xNy0xLjExLS41cy0uNDMtLjg4LS40My0xLjYyLjE1LTEuMjcuNDQtMS42LjY4LS41MSAxLjE1LS41MWMuMzEgMCAuNTguMDkuOC4yOC4yMi4xOS4zNy40Ny40Ni44NGwuOTEtLjE0Yy0uMTEtLjU2LS4zNS0uOTktLjczLTEuMjktLjM4LS4zLS44Ny0uNDUtMS40Ny0uNDUtLjQ4IDAtLjkxLjExLTEuMzIuMzQtLjQuMjItLjcxLjU2LS45IDEuMDEtLjIuNDUtLjMuOTctLjMgMS41NyAwIC45Mi4yMyAxLjYzLjY5IDIuMTIuNDYuNDkgMS4wNy43NCAxLjgyLjc0LjYgMCAxLjExLS4xOCAxLjUzLS41NC40MS0uMzYuNjctLjg2Ljc3LTEuNDlsLS45Mi0uMTJjLS4wNy40Ny0uMjIuODEtLjQ3IDEuMDRabTIuMTkuOThoLjk0di01LjUyaC0uOTR2NS41MlptMC02LjU1aC45NHYtMS4wOGgtLjk0djEuMDhabTYuNzMgMS4wMmgtMS4yMWwtMi4yMiAyLjI1di00LjM1aC0uOTR2Ny42MmguOTRWNjUuMWwuNjYtLjYzIDEuODMgMi44MmgxLjE2bC0yLjMzLTMuNDcgMi4xMS0yLjA1Wm0uOTYtMS4wMmguOTR2LTEuMDhoLS45NHYxLjA4Wm0wIDYuNTVoLjk0di01LjUyaC0uOTR2NS41MlptNC40MS0uODRjLS4xNy4wMi0uMzEuMDQtLjQxLjA0LS4xNCAwLS4yNS0uMDItLjMyLS4wN3MtLjEzLS4xMS0uMTYtLjE4Yy0uMDMtLjA4LS4wNS0uMjUtLjA1LS41MXYtMy4yM2guOTR2LS43M2gtLjk0di0xLjkzbC0uOTMuNTZ2MS4zN2gtLjY5di43M2guNjl2My4xOGMwIC41Ni4wNC45My4xMSAxLjEuMDguMTguMjEuMzIuMzkuNDIuMTkuMTEuNDUuMTYuNzkuMTYuMjEgMCAuNDQtLjAzLjcxLS4wOGwtLjE0LS44M1oiIGZpbGw9IiNmZmYiLz48L3N2Zz4=;" vertex="1" parent="EI2d-nt05hpr1vi_tLHB-61">
          <mxGeometry y="79.34" width="104.81" height="56.5" as="geometry" />
        </mxCell>
        <mxCell id="EI2d-nt05hpr1vi_tLHB-63" value="" style="shape=image;verticalLabelPosition=bottom;labelBackgroundColor=default;verticalAlign=top;aspect=fixed;imageAspect=0;editableCssRules=.*;image=data:image/svg+xml,PHN2ZyB2aWV3Qm94PSIxMi43MjUwMDAzODE0Njk3MjcgMiAxMDIuNTM3NTIxMzYyMzA0NjkgMTI0LjExMjUyNTkzOTk0MTQiIHhtbG5zPSJodHRwOi8vd3d3LnczLm9yZy8yMDAwL3N2ZyIgd2lkdGg9IjEwMi41Mzc1MjEzNjIzMDQ2OSIgaGVpZ2h0PSIxMjQuMTEyNTI1OTM5OTQxNCI+PHBhdGggZD0iTTEwMC4xIDM4LjNsLTkuMiA5LjJjMTUuMSAxNS4xIDE1LjEgMzkuNCAwIDU0LjMtMTUuMSAxNS4xLTM5LjQgMTUuMS01NC4zIDAtMTUuMS0xNS4xLTE1LjEtMzkuNCAwLTU0LjNsMjQtMjQgMy40LTMuNFYyTDI3LjggMzguMkM3LjcgNTguMyA3LjcgOTAuOCAyNy44IDExMXM1Mi42IDIwLjEgNzIuNCAwYzIwLjEtMjAuMiAyMC4xLTUyLjUtLjEtNzIuN3oiIGZpbGw9IiNFRTRDMkMiLz48Y2lyY2xlIHI9IjYuNyIgY3k9IjI5LjQiIGN4PSI4Mi4xIiB0cmFuc2Zvcm09InJvdGF0ZSgtODguOTM5IDgyLjA2OSAyOS4zOTgpIHNjYWxlKC45OTk5NykiIGZpbGw9IiNFRTRDMkMiLz48L3N2Zz4=;" vertex="1" parent="EI2d-nt05hpr1vi_tLHB-64">
          <mxGeometry x="301.59999999999997" y="140" width="53.16" height="64" as="geometry" />
        </mxCell>
        <mxCell id="EI2d-nt05hpr1vi_tLHB-66" value="onnx" style="locked=1;" parent="0" />
        <mxCell id="EI2d-nt05hpr1vi_tLHB-83" value="" style="group" vertex="1" connectable="0" parent="EI2d-nt05hpr1vi_tLHB-66">
          <mxGeometry x="570" y="810" width="410" height="320" as="geometry" />
        </mxCell>
        <mxCell id="EI2d-nt05hpr1vi_tLHB-80" value="" style="rounded=1;whiteSpace=wrap;html=1;" vertex="1" parent="EI2d-nt05hpr1vi_tLHB-83">
          <mxGeometry width="410" height="320" as="geometry" />
        </mxCell>
        <mxCell id="EI2d-nt05hpr1vi_tLHB-81" value="&lt;br&gt;&lt;div&gt;&lt;font style=&quot;font-size: 36px;&quot;&gt;Convert to&amp;nbsp;&lt;/font&gt;&lt;/div&gt;&lt;div&gt;&lt;font style=&quot;font-size: 36px;&quot;&gt;ONNX model&lt;/font&gt;&lt;/div&gt;" style="text;html=1;align=center;verticalAlign=middle;resizable=0;points=[];autosize=1;strokeColor=none;fillColor=none;" vertex="1" parent="EI2d-nt05hpr1vi_tLHB-83">
          <mxGeometry x="92.1052631578948" y="5" width="240" height="110" as="geometry" />
        </mxCell>
        <mxCell id="EI2d-nt05hpr1vi_tLHB-82" value="" style="shape=image;verticalLabelPosition=bottom;labelBackgroundColor=default;verticalAlign=top;aspect=fixed;imageAspect=0;editableCssRules=.*;image=data:image/svg+xml,PHN2ZyB4bWw6c3BhY2U9InByZXNlcnZlIiBzdHlsZT0iZW5hYmxlLWJhY2tncm91bmQ6bmV3IDAgMCAxOTAgMTkwOyIgdmlld0JveD0iMC40MDAwMDA1NzIyMDQ1ODk4NCAyIDE4OS42MDAwMDYxMDM1MTU2MiAxODQuNzk5OTg3NzkyOTY4NzUiIHk9IjBweCIgeD0iMHB4IiB4bWxuczp4bGluaz0iaHR0cDovL3d3dy53My5vcmcvMTk5OS94bGluayIgeG1sbnM9Imh0dHA6Ly93d3cudzMub3JnLzIwMDAvc3ZnIiBpZD0iTGF5ZXJfMSIgdmVyc2lvbj0iMS4xIiB3aWR0aD0iMTg5LjYwMDAwNjEwMzUxNTYyIiBoZWlnaHQ9IjE4NC43OTk5ODc3OTI5Njg3NSI+JiN4YTs8c3R5bGUgdHlwZT0idGV4dC9jc3MiPiYjeGE7CS5zdDB7ZmlsbDojMzMzMzMzO30mI3hhOwkuc3Qxe2ZpbGw6I0RFREVERDt9JiN4YTsJLnN0MntmaWxsOiNCMkIyQjI7fSYjeGE7CS5zdDN7ZmlsbDojRDFEMUQxO30mI3hhOwkuc3Q0e2ZpbGw6I0YyRjJGMjt9JiN4YTsJLnN0NXtmaWxsOiNEOEQ4RDc7fSYjeGE7CS5zdDZ7ZmlsbDojRkZGRkZGO30mI3hhOzwvc3R5bGU+JiN4YTs8Zz4mI3hhOwk8cGF0aCBkPSJNMTgyLjMsODguOGMtMC40LDAtMC44LDAtMS4yLDAuMWwtMzEuNy01OC43YzAuNi0xLjEsMC45LTIuMywwLjktMy41YzAtNC4yLTMuNC03LjctNy43LTcuNyAgIGMtMi4yLDAtNC4xLDAuOS01LjUsMi40TDczLjgsOC44QzczLjQsNSw3MC4xLDIsNjYuMiwyYy00LjIsMC03LjcsMy40LTcuNyw3LjdjMCwxLjMsMC4zLDIuNSwwLjksMy42TDEwLjEsODMuOSAgIGMtMC42LTAuMi0xLjMtMC4zLTItMC4zYy00LjIsMC03LjcsMy40LTcuNyw3LjdjMCw0LjIsMy40LDcuNyw3LjcsNy43bDAuMywwbDI2LjcsNjUuN2MtMC40LDEtMC43LDItMC43LDMuMiAgIGMwLDQuMiwzLjQsNy43LDcuNyw3LjdjMi4yLDAsNC4yLTAuOSw1LjYtMi40bDc5LjgsNy44YzAuOCwzLjMsMy44LDUuOCw3LjQsNS44YzQuMiwwLDcuNy0zLjQsNy43LTcuN2MwLTEuOS0wLjctMy42LTEuOC01ICAgTDE4MSwxMDRjMC40LDAuMSwwLjgsMC4xLDEuMywwLjFjNC4yLDAsNy43LTMuNCw3LjctNy43QzE5MCw5Mi4yLDE4Ni42LDg4LjgsMTgyLjMsODguOHogTTEzNi41LDMxLjRjMC45LDEuMiwyLjEsMi4xLDMuNiwyLjYgICBMMTI4LDEyNS4zYy0wLjgsMC4yLTEuNSwwLjQtMi4xLDAuOEw1OS40LDY4LjRjMC4yLTAuNiwwLjMtMS4zLDAuMy0yYzAtMC41LTAuMS0xLTAuMS0xLjVMMTM2LjUsMzEuNHogTTE3NC45LDk4LjZsLTQwLjksMjggICBjLTAuMy0wLjItMC42LTAuNC0xLTAuNmwxMi4yLTkyLjJsMC4xLDBsMzEuMiw1Ny42Yy0xLjIsMS40LTEuOSwzLjEtMS45LDUuMUMxNzQuNyw5Ny4yLDE3NC44LDk3LjksMTc0LjksOTguNnogTTUwLjksNTguOCAgIGMtMy43LDAuNS02LjUsMy43LTYuNSw3LjZsMCwwLjVMMTcsODNsNDIuNC02MC44TDUwLjksNTguOHogTTUzLjYsNzMuOWMxLTAuMiwyLTAuNywyLjgtMS4ybDY2LDU3LjRjLTAuMywwLjktMC41LDEuOC0wLjUsMi44ICAgbDAsMC40bC03My42LDMwLjNjLTEuMS0xLjYtMi44LTIuOC00LjctMy4yTDUzLjYsNzMuOXogTTEyMy45LDEzOGMxLDEuMSwyLjQsMiwzLjksMi4zbDMuNiwzMS45Yy0xLjUsMC44LTIuOCwyLTMuNSwzLjZsLTc3LjQtNy42ICAgTDEyMy45LDEzOHogTTEzMywxMzkuN2MyLjUtMS4zLDQuMy0zLjksNC4zLTYuOWMwLTAuNy0wLjEtMS4zLTAuMy0xLjlsMzcuNC0yNS43TDEzNi42LDE3MUwxMzMsMTM5Ljd6IE0xMzQuOSwyNi40bC03OCwzNCAgIGMtMC4zLTAuMi0wLjYtMC40LTAuOS0wLjZsOS45LTQyLjVsMC4zLDBjMi43LDAsNS4xLTEuNCw2LjQtMy41bDYyLjMsMTIuNEwxMzQuOSwyNi40eiBNMTUuOCw5MS4zYzAtMC41LTAuMS0xLTAuMS0xLjRsMzAuOC0xOC4yICAgYzAuNiwwLjYsMS4zLDEuMiwyLjEsMS42bC0xMCw4Ni4yTDEzLjIsOTdDMTQuOCw5NS42LDE1LjgsOTMuNiwxNS44LDkxLjN6IiBjbGFzcz0ic3QwIi8+JiN4YTsJPHBhdGggZD0iTTE0NS40LDMzLjhsMzEuMiw1Ny42Yy0xLjIsMS40LTEuOSwzLjEtMS45LDUuMWMwLDAuNywwLjEsMS40LDAuMywyLjFsLTQwLjksMjhjLTAuMy0wLjItMC42LTAuNC0xLTAuNiAgIGwxMi4yLTkyLjJMMTQ1LjQsMzMuOCIgY2xhc3M9InN0MSIvPiYjeGE7CTxwYXRoIGQ9Ik0xMzMsMTM5LjdjMi41LTEuMyw0LjMtMy45LDQuMy02LjljMC0wLjctMC4xLTEuMy0wLjMtMS45bDM3LjQtMjUuN0wxMzYuNiwxNzFMMTMzLDEzOS43eiIgY2xhc3M9InN0MiIvPiYjeGE7CTxwYXRoIGQ9Ik0xMjMuOSwxMzhjMSwxLjEsMi40LDIsMy45LDIuM2wzLjYsMzEuOWMtMS41LDAuOC0yLjgsMi0zLjUsMy42bC03Ny40LTcuNkwxMjMuOSwxMzh6IiBjbGFzcz0ic3QzIi8+JiN4YTsJPHBhdGggZD0iTTUzLjYsNzMuOWMxLTAuMiwyLTAuNywyLjgtMS4ybDY2LDU3LjRjLTAuMywwLjktMC41LDEuOC0wLjUsMi44bDAsMC40bC03My42LDMwLjNjLTEuMS0xLjYtMi44LTIuOC00LjctMy4yICAgTDUzLjYsNzMuOXoiIGNsYXNzPSJzdDQiLz4mI3hhOwk8cGF0aCBkPSJNMTUuOCw5MS4zYzAtMC41LTAuMS0xLTAuMS0xLjRsMzAuOC0xOC4yYzAuNiwwLjYsMS4zLDEuMiwyLjEsMS42bC0xMCw4Ni4yTDEzLjIsOTcgICBDMTQuOCw5NS42LDE1LjgsOTMuNiwxNS44LDkxLjN6IiBjbGFzcz0ic3Q1Ii8+JiN4YTsJPHBhdGggZD0iTTUwLjksNTguOGMtMy43LDAuNS02LjUsMy43LTYuNSw3LjZsMCwwLjVMMTcsODNsNDIuNC02MC44TDUwLjksNTguOHoiIGNsYXNzPSJzdDIiLz4mI3hhOwk8cGF0aCBkPSJNMTM0LjksMjYuNGwtNzgsMzRjLTAuMy0wLjItMC42LTAuNC0wLjktMC42bDkuOS00Mi41bDAuMywwYzIuNywwLDUuMS0xLjQsNi40LTMuNWw2Mi4zLDEyLjRMMTM0LjksMjYuNHoiIGNsYXNzPSJzdDMiLz4mI3hhOwk8cGF0aCBkPSJNMTM2LjUsMzEuNGMwLjksMS4yLDIuMSwyLjEsMy42LDIuNkwxMjgsMTI1LjNjLTAuOCwwLjItMS41LDAuNC0yLjEsMC44TDU5LjQsNjguNGMwLjItMC42LDAuMy0xLjMsMC4zLTIgICBjMC0wLjUtMC4xLTEtMC4xLTEuNUwxMzYuNSwzMS40eiIgY2xhc3M9InN0NiIvPiYjeGE7PC9nPiYjeGE7PC9zdmc+;" vertex="1" parent="EI2d-nt05hpr1vi_tLHB-83">
          <mxGeometry x="141.55" y="140" width="126.89" height="123.55" as="geometry" />
        </mxCell>
        <object label="inference web" id="EI2d-nt05hpr1vi_tLHB-87">
          <mxCell style="locked=1;" parent="0" />
        </object>
        <mxCell id="EI2d-nt05hpr1vi_tLHB-99" value="" style="group" vertex="1" connectable="0" parent="EI2d-nt05hpr1vi_tLHB-87">
          <mxGeometry x="1090" y="730" width="390" height="230" as="geometry" />
        </mxCell>
        <mxCell id="EI2d-nt05hpr1vi_tLHB-91" value="" style="rounded=1;whiteSpace=wrap;html=1;" vertex="1" parent="EI2d-nt05hpr1vi_tLHB-99">
          <mxGeometry width="390" height="230" as="geometry" />
        </mxCell>
        <mxCell id="EI2d-nt05hpr1vi_tLHB-92" value="&lt;br&gt;&lt;div&gt;&lt;font style=&quot;font-size: 36px;&quot;&gt;Inference (front-end)&lt;/font&gt;&lt;/div&gt;" style="text;html=1;align=center;verticalAlign=middle;resizable=0;points=[];autosize=1;strokeColor=none;fillColor=none;" vertex="1" parent="EI2d-nt05hpr1vi_tLHB-99">
          <mxGeometry x="17.105263157894797" y="25" width="350" height="70" as="geometry" />
        </mxCell>
        <mxCell id="EI2d-nt05hpr1vi_tLHB-96" value="" style="shape=image;verticalLabelPosition=bottom;labelBackgroundColor=default;verticalAlign=top;aspect=fixed;imageAspect=0;editableCssRules=.*;image=data:image/svg+xml,PHN2ZyB4bWxucz0iaHR0cDovL3d3dy53My5vcmcvMjAwMC9zdmciIHZpZXdCb3g9IjAgMCAyNjAgMjYwIiB2ZXJzaW9uPSIxLjEiIGhlaWdodD0iMjYwIiB3aWR0aD0iMjYwIj4mI3hhOwk8cGF0aCBmaWxsPSIjZmZmIiBkPSJtOS43NSAwaDI0MC41YzUuMzg1IDAgOS43NSA0LjM2NTIgOS43NSA5Ljc1djI0MC41YzAgNS4zODUtNC4zNjUgOS43NS05Ljc1IDkuNzVoLTI0MC41Yy01LjM4NDggMC05Ljc1LTQuMzY1LTkuNzUtOS43NXYtMjQwLjVjMC01LjM4NDggNC4zNjUyLTkuNzUgOS43NS05Ljc1eiIvPiYjeGE7CTxwYXRoIGZpbGw9IiMzMTc4YzYiIGQ9Im05Ljc1IDBoMjQwLjVjNS4zODUgMCA5Ljc1IDQuMzY1MiA5Ljc1IDkuNzV2MjQwLjVjMCA1LjM4NS00LjM2NSA5Ljc1LTkuNzUgOS43NWgtMjQwLjVjLTUuMzg0OCAwLTkuNzUtNC4zNjUtOS43NS05Ljc1di0yNDAuNWMwLTUuMzg0OCA0LjM2NTItOS43NSA5Ljc1LTkuNzV6bTEzNC43OCAxMzguMzJ2LTIxLjMyNGgtOTIuNTMydjIxLjMyNGgzMy4wMzZ2OTQuOTQ2aDI2LjI5OHYtOTQuOTQ2em0xMC40ODUgOTIuNDM5YzQuMjQxIDIuMTYyIDkuMjU3IDMuNzg0IDE1LjA0OCA0Ljg2NSA1Ljc5IDEuMDgxIDExLjg5MyAxLjYyMiAxOC4zMDkgMS42MjIgNi4yNTMgMCAxMi4xOTMtMC41OTUgMTcuODItMS43ODQgNS42MjgtMS4xODkgMTAuNTYyLTMuMTQ5IDE0LjgwMy01Ljg3OXM3LjU5OC02LjI5NyAxMC4wNzItMTAuNzAzIDMuNzExLTkuODUyIDMuNzExLTE2LjMzOWMwLTQuNzAzLTAuNzA3LTguODI0LTIuMTItMTIuMzY1LTEuNDE0LTMuNTQxLTMuNDUzLTYuNjktNi4xMTctOS40NDdzLTUuODU5LTUuMjMtOS41ODMtNy40MTljLTMuNzI1LTIuMTg5LTcuOTI1LTQuMjU3LTEyLjYwMS02LjIwMy0zLjQyNS0xLjQwNi02LjQ5Ny0yLjc3MS05LjIxNi00LjA5NS0yLjcxOC0xLjMyNC01LjAyOS0yLjY3Ni02LjkzMi00LjA1NC0xLjkwMy0xLjM3OS0zLjM3MS0yLjgzOC00LjQwNC00LjM3OS0xLjAzMy0xLjU0LTEuNTUtMy4yODQtMS41NS01LjIzIDAtMS43ODQgMC40NjMtMy4zOTIgMS4zODctNC44MjQgMC45MjQtMS40MzMgMi4yMjktMi42NjMgMy45MTUtMy42OSAxLjY4NS0xLjAyNyAzLjc1MS0xLjgyNCA2LjE5OC0yLjM5MiAyLjQ0Ny0wLjU2NyA1LjE2NS0wLjg1MSA4LjE1Ni0wLjg1MSAyLjE3NCAwIDQuNDcyIDAuMTYyIDYuODkxIDAuNDg2IDIuNDIgMC4zMjUgNC44NTMgMC44MjUgNy4yOTkgMS41IDIuNDQ3IDAuNjc2IDQuODI2IDEuNTI3IDcuMTM3IDIuNTU1IDIuMzExIDEuMDI3IDQuNDQ1IDIuMjE2IDYuNDAyIDMuNTY3di0yNC4yNDRjLTMuOTY5LTEuNTE0LTguMzA1LTIuNjM2LTEzLjAwOC0zLjM2NS00LjcwNC0wLjczLTEwLjEtMS4wOTUtMTYuMTg5LTEuMDk1LTYuMTk5IDAtMTIuMDcxIDAuNjYyLTE3LjYxNyAxLjk4Ny01LjU0NiAxLjMyNC0xMC40MjUgMy4zOTItMTQuNjM5IDYuMjAzcy03LjU0NCA2LjM5Mi05Ljk5MSAxMC43NDNjLTIuNDQ3IDQuMzUyLTMuNjcgOS41NTUtMy42NyAxNS42MDkgMCA3LjczMSAyLjI0MyAxNC4zMjYgNi43MjkgMTkuNzg1IDQuNDg1IDUuNDYgMTEuMjk1IDEwLjA4MiAyMC40MyAxMy44NjYgMy41ODggMS40NiA2LjkzMiAyLjg5MiAxMC4wMzEgNC4yOTggMy4wOTkgMS40MDUgNS43NzcgMi44NjUgOC4wMzMgNC4zNzggMi4yNTcgMS41MTQgNC4wMzcgMy4xNjIgNS4zNDIgNC45NDZzMS45NTggMy44MTEgMS45NTggNi4wODJjMCAxLjY3Ni0wLjQwOCAzLjIzLTEuMjI0IDQuNjYyLTAuODE1IDEuNDMzLTIuMDUyIDIuNjc2LTMuNzEgMy43My0xLjY1OSAxLjA1NC0zLjcyNSAxLjg3OS02LjE5OSAyLjQ3My0yLjQ3NCAwLjU5NS01LjM2OSAwLjg5Mi04LjY4NiAwLjg5Mi01LjY1NCAwLTExLjI1NC0wLjk4Ni0xNi44LTIuOTU5cy0xMC42ODQtNC45MzMtMTUuNDE1LTguODc5eiIvPiYjeGE7PC9zdmc+;" vertex="1" parent="EI2d-nt05hpr1vi_tLHB-99">
          <mxGeometry x="270" y="120" width="80" height="80" as="geometry" />
        </mxCell>
        <mxCell id="EI2d-nt05hpr1vi_tLHB-97" value="&lt;font style=&quot;font-size: 32px;&quot;&gt;result : &quot;E&quot;&lt;/font&gt;" style="text;html=1;align=center;verticalAlign=middle;resizable=0;points=[];autosize=1;strokeColor=none;fillColor=none;" vertex="1" parent="EI2d-nt05hpr1vi_tLHB-99">
          <mxGeometry x="78.00000000000023" y="135" width="170" height="50" as="geometry" />
        </mxCell>
        <mxCell id="EI2d-nt05hpr1vi_tLHB-106" style="edgeStyle=orthogonalEdgeStyle;rounded=0;orthogonalLoop=1;jettySize=auto;html=1;entryX=0;entryY=0.5;entryDx=0;entryDy=0;strokeWidth=5;" edge="1" parent="EI2d-nt05hpr1vi_tLHB-87" source="EI2d-nt05hpr1vi_tLHB-80" target="EI2d-nt05hpr1vi_tLHB-91">
          <mxGeometry relative="1" as="geometry" />
        </mxCell>
        <mxCell id="EI2d-nt05hpr1vi_tLHB-107" style="edgeStyle=orthogonalEdgeStyle;rounded=0;orthogonalLoop=1;jettySize=auto;html=1;exitX=1;exitY=0.5;exitDx=0;exitDy=0;strokeWidth=5;" edge="1" parent="EI2d-nt05hpr1vi_tLHB-87" source="EI2d-nt05hpr1vi_tLHB-80" target="EI2d-nt05hpr1vi_tLHB-101">
          <mxGeometry relative="1" as="geometry" />
        </mxCell>
        <mxCell id="EI2d-nt05hpr1vi_tLHB-98" value="inference backend" style="locked=1;" parent="0" />
        <mxCell id="EI2d-nt05hpr1vi_tLHB-100" value="" style="group" vertex="1" connectable="0" parent="EI2d-nt05hpr1vi_tLHB-98">
          <mxGeometry x="1090" y="1020" width="390" height="230" as="geometry" />
        </mxCell>
        <mxCell id="EI2d-nt05hpr1vi_tLHB-101" value="" style="rounded=1;whiteSpace=wrap;html=1;" vertex="1" parent="EI2d-nt05hpr1vi_tLHB-100">
          <mxGeometry width="390" height="230" as="geometry" />
        </mxCell>
        <mxCell id="EI2d-nt05hpr1vi_tLHB-102" value="&lt;br&gt;&lt;div&gt;&lt;font style=&quot;font-size: 36px;&quot;&gt;Inference (back-end)&lt;/font&gt;&lt;/div&gt;" style="text;html=1;align=center;verticalAlign=middle;resizable=0;points=[];autosize=1;strokeColor=none;fillColor=none;" vertex="1" parent="EI2d-nt05hpr1vi_tLHB-100">
          <mxGeometry x="12.105263157894797" y="25" width="360" height="70" as="geometry" />
        </mxCell>
        <mxCell id="EI2d-nt05hpr1vi_tLHB-104" value="&lt;font style=&quot;font-size: 32px;&quot;&gt;result : &quot;E&quot;&lt;/font&gt;" style="text;html=1;align=center;verticalAlign=middle;resizable=0;points=[];autosize=1;strokeColor=none;fillColor=none;" vertex="1" parent="EI2d-nt05hpr1vi_tLHB-100">
          <mxGeometry x="78.00000000000023" y="135" width="170" height="50" as="geometry" />
        </mxCell>
        <mxCell id="EI2d-nt05hpr1vi_tLHB-105" value="" style="shape=image;verticalLabelPosition=bottom;labelBackgroundColor=default;verticalAlign=top;aspect=fixed;imageAspect=0;editableCssRules=.*;image=data:image/svg+xml,PHN2ZyB2aWV3Qm94PSIxMi44MTIyOTc4MjEwNDQ5MjIgMTIuMjQ3MjA0NzgwNTc4NjEzIDEwMi4zNzc3OTIzNTgzOTg0NCAxMTMuNzY1NzkyODQ2Njc5NjkiIHhtbG5zPSJodHRwOi8vd3d3LnczLm9yZy8yMDAwL3N2ZyIgd2lkdGg9IjEwMi4zNzc3OTIzNTgzOTg0NCIgaGVpZ2h0PSIxMTMuNzY1NzkyODQ2Njc5NjkiPjxsaW5lYXJHcmFkaWVudCBncmFkaWVudFRyYW5zZm9ybT0ibWF0cml4KC41NjMgMCAwIC0uNTY4IC0yOS4yMTUgNzA3LjgxNykiIHkyPSIxMTUxLjA4OSIgeDI9IjE3MC42NTkiIHkxPSIxMjM3LjQ3NiIgeDE9IjcwLjI1MiIgZ3JhZGllbnRVbml0cz0idXNlclNwYWNlT25Vc2UiIGlkPSJweXRob24tb3JpZ2luYWwtYSI+PHN0b3Agc3RvcC1jb2xvcj0iIzVBOUZENCIgb2Zmc2V0PSIwIi8+PHN0b3Agc3RvcC1jb2xvcj0iIzMwNjk5OCIgb2Zmc2V0PSIxIi8+PC9saW5lYXJHcmFkaWVudD48bGluZWFyR3JhZGllbnQgZ3JhZGllbnRUcmFuc2Zvcm09Im1hdHJpeCguNTYzIDAgMCAtLjU2OCAtMjkuMjE1IDcwNy44MTcpIiB5Mj0iMTE0OS41MzciIHgyPSIxNzMuNjIiIHkxPSIxMDk4LjgxMSIgeDE9IjIwOS40NzQiIGdyYWRpZW50VW5pdHM9InVzZXJTcGFjZU9uVXNlIiBpZD0icHl0aG9uLW9yaWdpbmFsLWIiPjxzdG9wIHN0b3AtY29sb3I9IiNGRkQ0M0IiIG9mZnNldD0iMCIvPjxzdG9wIHN0b3AtY29sb3I9IiNGRkU4NzMiIG9mZnNldD0iMSIvPjwvbGluZWFyR3JhZGllbnQ+PHBhdGggdHJhbnNmb3JtPSJ0cmFuc2xhdGUoMCAxMC4yNikiIGQ9Ik02My4zOTEgMS45ODhjLTQuMjIyLjAyLTguMjUyLjM3OS0xMS44IDEuMDA3LTEwLjQ1IDEuODQ2LTEyLjM0NiA1LjcxLTEyLjM0NiAxMi44Mzd2OS40MTFoMjQuNjkzdjMuMTM3SDI5Ljk3N2MtNy4xNzYgMC0xMy40NiA0LjMxMy0xNS40MjYgMTIuNTIxLTIuMjY4IDkuNDA1LTIuMzY4IDE1LjI3NSAwIDI1LjA5NiAxLjc1NSA3LjMxMSA1Ljk0NyAxMi41MTkgMTMuMTI0IDEyLjUxOWg4LjQ5MVY2Ny4yMzRjMC04LjE1MSA3LjA1MS0xNS4zNCAxNS40MjYtMTUuMzRoMjQuNjY1YzYuODY2IDAgMTIuMzQ2LTUuNjU0IDEyLjM0Ni0xMi41NDhWMTUuODMzYzAtNi42OTMtNS42NDYtMTEuNzItMTIuMzQ2LTEyLjgzNy00LjI0NC0uNzA2LTguNjQ1LTEuMDI3LTEyLjg2Ni0xLjAwOHpNNTAuMDM3IDkuNTU3YzIuNTUgMCA0LjYzNCAyLjExNyA0LjYzNCA0LjcyMSAwIDIuNTkzLTIuMDgzIDQuNjktNC42MzQgNC42OS0yLjU2IDAtNC42MzMtMi4wOTctNC42MzMtNC42OS0uMDAxLTIuNjA0IDIuMDczLTQuNzIxIDQuNjMzLTQuNzIxeiIgZmlsbD0idXJsKCNweXRob24tb3JpZ2luYWwtYSkiLz48cGF0aCB0cmFuc2Zvcm09InRyYW5zbGF0ZSgwIDEwLjI2KSIgZD0iTTkxLjY4MiAyOC4zOHYxMC45NjZjMCA4LjUtNy4yMDggMTUuNjU1LTE1LjQyNiAxNS42NTVINTEuNTkxYy02Ljc1NiAwLTEyLjM0NiA1Ljc4My0xMi4zNDYgMTIuNTQ5djIzLjUxNWMwIDYuNjkxIDUuODE4IDEwLjYyOCAxMi4zNDYgMTIuNTQ3IDcuODE2IDIuMjk3IDE1LjMxMiAyLjcxMyAyNC42NjUgMCA2LjIxNi0xLjgwMSAxMi4zNDYtNS40MjMgMTIuMzQ2LTEyLjU0N3YtOS40MTJINjMuOTM4di0zLjEzOGgzNy4wMTJjNy4xNzYgMCA5Ljg1Mi01LjAwNSAxMi4zNDgtMTIuNTE5IDIuNTc4LTcuNzM1IDIuNDY3LTE1LjE3NCAwLTI1LjA5Ni0xLjc3NC03LjE0NS01LjE2MS0xMi41MjEtMTIuMzQ4LTEyLjUyMWgtOS4yNjh6TTc3LjgwOSA4Ny45MjdjMi41NjEgMCA0LjYzNCAyLjA5NyA0LjYzNCA0LjY5MiAwIDIuNjAyLTIuMDc0IDQuNzE5LTQuNjM0IDQuNzE5LTIuNTUgMC00LjYzMy0yLjExNy00LjYzMy00LjcxOSAwLTIuNTk1IDIuMDgzLTQuNjkyIDQuNjMzLTQuNjkyeiIgZmlsbD0idXJsKCNweXRob24tb3JpZ2luYWwtYikiLz48cmFkaWFsR3JhZGllbnQgZ3JhZGllbnRVbml0cz0idXNlclNwYWNlT25Vc2UiIGdyYWRpZW50VHJhbnNmb3JtPSJtYXRyaXgoMCAtLjI0IC0xLjA1NSAwIDUzMi45NzkgNTU3LjU3NikiIHI9IjI2Ljc0MyIgY3k9IjQ0NC40NSIgY3g9IjE4MjUuNjc4IiBpZD0icHl0aG9uLW9yaWdpbmFsLWMiPjxzdG9wIHN0b3Atb3BhY2l0eT0iLjQ5OCIgc3RvcC1jb2xvcj0iI0I4QjhCOCIgb2Zmc2V0PSIwIi8+PHN0b3Agc3RvcC1vcGFjaXR5PSIwIiBzdG9wLWNvbG9yPSIjN0Y3RjdGIiBvZmZzZXQ9IjEiLz48L3JhZGlhbEdyYWRpZW50PjxwYXRoIGQ9Ik05Ny4zMDkgMTE5LjU5N2MwIDMuNTQzLTE0LjgxNiA2LjQxNi0zMy4wOTEgNi40MTYtMTguMjc2IDAtMzMuMDkyLTIuODczLTMzLjA5Mi02LjQxNiAwLTMuNTQ0IDE0LjgxNS02LjQxNyAzMy4wOTItNi40MTcgMTguMjc1IDAgMzMuMDkxIDIuODcyIDMzLjA5MSA2LjQxN3oiIGZpbGw9InVybCgjcHl0aG9uLW9yaWdpbmFsLWMpIiBvcGFjaXR5PSIuNDQ0Ii8+PC9zdmc+;" vertex="1" parent="EI2d-nt05hpr1vi_tLHB-100">
          <mxGeometry x="280" y="120" width="71.58" height="80" as="geometry" />
        </mxCell>
        <mxCell id="EI2d-nt05hpr1vi_tLHB-110" value="new &amp; process data" style="locked=1;" parent="0" />
        <mxCell id="EI2d-nt05hpr1vi_tLHB-117" value="" style="group" vertex="1" connectable="0" parent="EI2d-nt05hpr1vi_tLHB-110">
          <mxGeometry x="70" y="390" width="410" height="320" as="geometry" />
        </mxCell>
        <mxCell id="EI2d-nt05hpr1vi_tLHB-114" value="" style="rounded=1;whiteSpace=wrap;html=1;" vertex="1" parent="EI2d-nt05hpr1vi_tLHB-117">
          <mxGeometry width="410" height="320" as="geometry" />
        </mxCell>
        <mxCell id="EI2d-nt05hpr1vi_tLHB-115" value="&lt;div&gt;&lt;font style=&quot;font-size: 36px;&quot;&gt;New data from user&lt;/font&gt;&lt;/div&gt;&lt;div&gt;&lt;font style=&quot;font-size: 36px;&quot;&gt;(unprocessed)&lt;/font&gt;&lt;/div&gt;" style="text;html=1;align=center;verticalAlign=middle;resizable=0;points=[];autosize=1;strokeColor=none;fillColor=none;" vertex="1" parent="EI2d-nt05hpr1vi_tLHB-117">
          <mxGeometry x="42.1052631578948" y="20" width="340" height="100" as="geometry" />
        </mxCell>
        <mxCell id="EI2d-nt05hpr1vi_tLHB-116" value="" style="shape=image;verticalLabelPosition=bottom;labelBackgroundColor=default;verticalAlign=top;aspect=fixed;imageAspect=0;image=data:image/png,iVBORw0KGgoAAAANSUhEUgAAAhEAAAGKCAYAAACy1xMPAAAAAXNSR0IArs4c6QAAAARnQU1BAACxjwv8YQUAAAAJcEhZcwAADsMAAA7DAcdvqGQAACItSURBVHhe7d15rFxl/T/wp3QvhbIVZF9kKxCQyCJKVYzsxGgiGCEB9C+XBIwSkiKLgsgSiRqDWyKQCiqKKGrEuMZGVCCiESPIUoSy09JCF7rctj8/z28O33Gc3t45Z27buc/rlZzMnDPLnfbOPZ/3eZ7nPGfc+v9IAAA92qp1CwDQEyECAKhFiAAAahEiAIBahAgAoBYhAgCoRYgAAGoRIgCAWoQIAKAWIQIAqEWIAABqESIAgFqECACgFiECAKhFiAAAahEiAIBahAgAoBYhAgCoRYgAAGoRIgCAWoQIAKAWIQIAqEWIAABqESIAgFqECACgFiECAKhFiAAAahEiAIBahAgAoBYhAgCoRYgAAGoRIgCAWoQIAKAWIQIAqEWIAABqESIAgFqECACgFiECAKhFiAAAahEiAIBahAgAoBYhAgCoRYgAAGoRIgCAWoQIAKAWIQIAqEWIAABqESIAgFqECACgFiECAKhFiAAAahEiAIBahAgAoBYhAgCoRYgAAGoRIgCAWoQIAKAWIQIAqEWIAABqESIAgFqECACgFiECAKhFiAAAahEiAIBahAgAoBYhAgCoZdz6/2jdh/+xatWqtHz58rTVVlul6dOnpwkTJrQeAaAf1q5dm5YsWZJWrFiRXn311dfvL168OC1dujTvg2NZtmxZ3ifHc4aGhvJrx48fn/bff/90zDHHpKOOOirvp8eNG5cf2xSECP5HfHH/9Kc/pV/96ldp/vz5aeXKlflLufXWW6fDDjssnXzyyemII47I6wB09/LLL6fXXnstvfLKK+nFF1/M61VIWLRo0evr8XiEg3Xr1uVwEEvcX7NmTQ4YcT9uq/tVgKhMnTo1bbvttmnvvfdO5513Xjr++OPTtGnTWo+OLiGC18UX+d57700/+clP0t/+9re0cOHCHCCqr0i0RkRw2G233dLs2bPT6aefng455JA0ZcqU/Diw5aqOduO2n6JIxhFyv9+3myig8W/oLKJNRTEf7j2jwHf+G2NbtBJU26KlIFoP4jPGvnT16tV5qYp+BIK4rZb29XiPfpTiiRMnpp133jm9733vy2Fi5syZo94qIUSQxR/Dj370o/S9730vPfbYY/kPZEOqro1jjz02feADH0iHH3542mmnnXKzGmxp4rvdHoZD7MBjRx878HYbem4cLQ5XJLsVmU7xeBSZ4Xa5Uczi541Ut8+7IfGc+PeO5Lm9qI6SN4XR+jfE//lw7xmPdRb66t9dbYv7sS3EZ6zubw7bbbddDhHnn39+2mGHHVpbR4cQUbhnnnkm/fSnP0133313evTRRze6k2sXYWKbbbbJX9JoodhY4o3nRqvFxp4XfwCTJk3a6PPiZ0aTXXyOuuK18fP6NdZj8uTJOWD1M1DF+0Vz5WgfUTS1saO5OGKNo7VuO9cNFeE46uwMtFVR7/xZG3r/aufe/r2O+90+a7edf/Xc4f4u4rHOItOp2+fotLGf06nb54UQrRBXX311esc73jGqrcVCRKFih3b77benH/7wh7nlIXbKo70zisIaRXtjxTAK+kgKZrxfP4r1SH/eSMS/Lz5TPwv+SP/fNreNHc3F92tDhTa2dXtsuKLeaSRFGkoR+4vjjjsuXXfddWmvvfZqbe0/IaJAsbO98cYb0x133JGefvrpvA7A2BIto9/4xjfS2972tty6OxrME1GgX/7yl+muu+5KCxYsECAAxqjoCpw3b15uaR4tQkRhoo/5tttuS08++aS+VIAx7tlnnx12oHxTQkRh7r///vTEE0/0NAIcgMHU62DdXgkRhYkQEaeFAUBTQkRhYiDlaDZtAbDliJks+3EW24YIEYWJAGEsBEAZ4jTPGTNmtNb6T4goTHyZXEQLYOzbfffd86UJYrK60SJEFObAAw8c1S8UAJtfdGGcddZZOUiM5kR1QkRhYgrUmOYZgLHrlFNOSWecccaodmUEM1YWJq4qd8011+TZKkdzAhJgsFXXsOmXaAGN68AMd62bmGExrrEzmgMB64ixZHFWW/vkfJ3b4rpD1VU8N6f4v3vXu96VLrzwwjRr1qxR774WIgoUE03NmTMnn+4ZoQL4X90ufBaXWo4ju84iFwU3CmC7uEBcvH64ohkXrxtuJ199hg29x0gKc7v47J2fc0Pic430fUci3mtj4aB6zpZ2nZgIBhEW2stl3G+/hks8Xl27JSb1i31rBI04WIuwEdsWL16cFi1alG/jKrLVerdrwdQR36e4eufpp5+e9tlnn/x9HW1CRIHii/7Pf/4zfeELX0j33HOPIMEmFaecRSFrLxRxlcEohp1FJp7beeXXKDSdV16N9+t8fRTYKOTt27q9X7xPt2AQ6/Gz2p8b92N7+7bQreBWrx9O7OQ736tdt8/QLh7r/NzD6XcwoLtqgqfY18b9CBhxG0tM9Ffdr9bbg0bcjxaNhQsX5qvSxtVtqyXWY4kr1sbz43e5/fbbp4MPPjgdffTR6S1veUvaf//989/Hpvo9CxGFii91zBkRV/KcO3du/kJuyboVno3Z0FFjHf247HhdIzmi7UXdZuqNHRXHUVDnkU+3I98oZPF7bP9dxnt2+z11K3rxutjernp9t/ds3xbrne/X7XmwKcX+uD1oRPiIcFFt71yqlpEQf3Oxb4puoM3RFSREFCx+9Q888EC69tpr03333dfaWs873/nOdPzxx+eCF0bSzBqPdR5Rbki3wrMx8dx+FYd4n039x1mJnzvc/2OvuhXmkag+x4b+P6vfUbu6PwsYDEJE4R566KE80PL3v/99a0s9H/nIR9K5556bQ0GIwrGxohsFp1vhAWAwOEQoXL8KeDSPR5NatERUze+xbbhlY/3BAGzZhIjCRRFXyAGoQ4gonAABQF1CBIIEALUIEYUTIACoS4gonDERANQlRBROiACgLiGicHGqZT8mUYo54mOGNQDKIUQUrppCtalq3gcAyiFE0JfuDNMbA5THXr9ww10LoRfxPkIEQFns9QvXr0GV/QojAAwOIaJw/WyJECIAyiJEFC4Kfz+6Ifp9uWoAtnz2+oXTnQFAXUJE4frZnaElAqAs9vqF61fx71cYAWBwCBGF62d3hpYIgLLY6xcuQkS/ujO0RACURYgo3PTp09OUKVNaa82sX7++dQ+AEggRhYuLZg0NDbXW6onTO+O6GbozAMpir0/jboi4bkYECd0ZAGURIgrXj0mijIcAKJMQUbh+tCBEiNCVAVAee/7C9SMAaIkAKJMQUbhoiYgxDU1CQD+6RAAYPPb8hYvw0DQEaIkAKJMQQQ4BTUKElgiAMtnz03hwZdMQAsBgsudHdwYAtQgRNA4RujMAymTPj5YIAGoRIsghQEsEAL2y56cvLRFCBEB57PnJIaJJd0TT1wMwmIQIGrckaIkAKJM9PwZWAlCLEEHjENH09QAMJnt++tISIUQAlMeenxwADKwEoFdCBI1bIiJACBEA5REiMCYCgFrs+ckBoEkIaPp6AAaTPT9pypQpaeLEia213g0NDaW1a9e21gAohRBBWrduXVq/fn1rrXdNQwgAg0mIoHFXxIQJE/K4CADKIkSQz6xoEiQMrAQokz0/OQQ0OUUzAoRTPAHKI0TQeJ4HLREAZbLnJwcA3RkA9Mqen8bdGUIEQJns+ckBwJgIAHolRJBDQJOWBC0RAGWy56cvLRFCBEB57PlpHCK0RACUyZ6fNHXq1DRp0qTWWu/iuhkxdTYAZREiaBwCIoDE1NcAlEWIoLEIELozAMpjz0/jgZExnsIpngDlESJoPLBSiAAokxBB4xAgRACUSYigcXdG05YMAAaTEIHuDABqESLoS4gAoDxCBI1DhO4MgDIJEejOAKAWIYIcImKpS4gAKJMQgZYIAGoRIsjTVseVOOtas2ZNGhoaaq0BUAohgsYmT57sAlwABRIiaKzpmAoABpM9P8ZEAFCLEEHjENA0hAAwmIQIGgcAAQKgTEIEujMAqEWIIE2ZMiVNmjSptda7lStX5tM8ASiLEEGe42Ht2rWttd5NnTo1TZw4sbUGQCmECNL69etb9+qJiaqaTFYFwGASIjCwEoBahAgaD4xs+noABpMQQeMQYJ4IgDIJEfQlAAgRAOURIuhLSwQA5bH3p3F3xOrVqxudIgrAYBIiyJqEiJioyqXAAcojRNBYzBGhSwOgPPb8NGZQJUCZhAgaazowE4DBJETQmBABUCYhgsYECIAyCRE0piUCoExCBGnatGn5NM261q1b1/hKoAAMHiGCPFnU0NBQa6030QIRp3hqiQAojxBBo5aECA8uwAVQJiGCRgEgXitAAJRJiKBREDBTJUC5VAAahYgmrwVgsAkRNAoBQgRAuYQIGgUBAQKgXEIEacqUKWnixImttd40OT0UgMEmRJBDQJzmWUdMUlU3gAAw2IQI8hwRdeeJMEcEQLmECBoRIADKJUTQaGBlECQAyiRE0IgAAVAuIYLGrRCCBECZhAgaBQEBAqBcQgSNWxMECYAyCRE0IkAAlEuIoHErhCABUCYhAkEAgFqECBoRPgDKJUSQg0Dd6au1YgCUS4igESECoFxCBJkgAECvhAiyui0KWiIAyiVE0IgAAVAuIYJMiwIAvRIiyOoGCOEDoFxCBFndMCBAbB5r165Nq1atSkuXLk0vv/xyeuGFF9IzzzyT/v3vf6f58+enxx9/PP3rX//K6/HY4sWL09DQUOvVAP0xbv1/tO5TsCuuuCLdeuutPReaXXbZJX3mM59Jp512WmsLTa1bty6tWbNm2OXVV19NixYtSi+++GJauHBhvh9BIdbj8Spg7LrrrunAAw/Mt0cddVTac8898+9s8uTJAiDQmBBBFkEgQkQUoF5EcYoAcuqpp7a2MJxoQYj/4whrVSBovx/LsmXLciiowkHcVmGhun3ttddSr3+6ERze/OY3p/POOy8dccQRaebMmWnChAmtRwF6J0SQCRHNRRhYvXp112BQPRYtCNFiEOEguiE6w0Is0YIQrRGjZdttt82/r3POOSfNmjUrTZo0qfUIQG+ECLLPfvazOUREoetFKSFiuIAQ22NbexDoDAYRHF566aX8/C1FdG9cfPHF6cgjjxQkgFqECLIrr7wyffvb3+45ROy22245RJxyyimtLYMpuhni314tVTiobtvDQSztASG6GKJVId5j0MyePTt96lOfSocddliaOHFiayvAyAgRZFdddVUOETEgrxe77757uvzyywciRFRBIf6N7bexREvB888/n89kiCWCQSzV/XjuWP1TOfHEE9OcOXPSvvvumy/EBjBSQgTZ5z73uTR37tyeQ8Qee+yRQ8TJJ5/c2rJ5VQMXq3AQ/55qeeWVV9Kzzz6bnn766fTcc8/l+3EbSwxmHM1xCFuy8ePHp0svvTSdeeaZaZtttmltBdg4IYIsQkS0RKxcubK1ZWTilMHLLrts1ENEFPgICNUSYxDaxylUoSEGLsbYg2hBiHCwYMGCvERgiMdKDQobc/jhh6cbbrghHXDAAU79BEZMiCC7+uqrc0tEnRARLREnnXRSa8t/q4p/3EbRD3Eb6/HVi/txG+vt26rnV7fxueKsheXLl+dWgyVLluRxCVVgqLoe4vF4Db2J1ohrr702nXHGGWnatGmtrQDDEyLIPv/5z+cQEfMP9CIGVl5wwQXprW99ay7e7a0Fsb5ixYpc2ON9q5aAuI1QEC0I0cUQz62eE4/HIMXofohxCvG86jmMrhNOOCGPjYlgCDASQkTh4tcfBfyaa65Jd9xxR88tEXHUGjMixkRGEQKilSCCQ3WrVWBw7LzzzjlIxtwRACMhRBQqxg/EkX6covjAAw/k8RCPPvqool+422+/PR199NG5ewNgY4SIwsSvO7oHHnzwwfTzn/88/fa3v83jCYQHwk033ZTnjjD5FDASTgovSASFOFMhWh0uuuii9N3vfjfPjSBAAFCHEFGIaIF46qmn8gDKG2+8MYcHjVB0igtyOcUTGCkhohDRZfHlL385zZs3r+czMCjDlClT0g477ODKnsCICREFiNMlo6/7N7/5TT4TA7o55JBD8oyVWiKAkRIiCvCPf/wj/eIXv8gDKqGbCA7HHXdcvkw4wEgJEWNcTOj0gx/8IM/sCBuy44475smmZsyY0doCsHFCxBgXgynvv/9+3RhsUMwJEdNd77PPPuaHAHoiRIxx0ZUhQDCc/fbbL5111lm5NQKgF0LEGPfQQw/l6aehmwgOH/7wh9Pee++dttrK7gDojb3GGPfEE0/0fD0Mxr4IDHHxtAgQp556apo+fXrrEYCREyLGuBhYaVIp2lUXTZszZ0760Ic+lLbffvvWIwC9ESLGuIkTJzrvn/wdiNaGuMz3ySefnK699tp0yimnpK233rr1DIDeuQDXGHfllVem73//+2np0qWtLYxFERKqKaujqyLOsojbCJHR8hCnbh555JHp3e9+dzr22GPzNoCmhIgx7s4770zXX399eu6551pb2FJUhT5u2++3B4LqsRDb4jnV4+3bYtluu+3yerQ4TJ06NS8xcHLWrFk5QES3RTwPoF+EiDHukUceSRdccEF6+OGHjY34j6pYxxF6VYBH0uXTXsxHonrv6n71/u3boyshWgRiqQp/TDsdPycKfnyueE5sj9dU17WIy3THzJJxP1oYYn1jnx9gNAgRY9zQ0FC65JJL0s9+9rMxO19EdWQeRbcKB53rUZjjNop1FO04Qo9CHOtxP543nPZiPhLtF7KKFoLJkyfnzxkhIS50pegDY4EQUYB77703B4nHH398oFojqjAQAaA9HHSuR4GOQr3TTjvlJQp4rEc4iPU4qo/g4AqVAP0lRBRg7dq16dJLL80X4VqyZElat25d65HNI47CqxAQt+1L+7Yo/tFcHy0GEQiq9TianzlzZg4KscS2XroaAOgPIaIQMf313LlzN/nVPKO4R0tBLNGMH7cRAnbeeeccDKrWguo2Wguq+1oNALZsQkRB5s+fn6677rp0zz33pGXLlvW1a6NbWIjbaCnYY4898rTKcbvXXnvluQoiJGg9ABhsQkRhFixYkL761a+mefPmpeeffz4PvGwiuh122WWXHBA6w0Lcj5YFYQFgbBIiCrRq1ar04x//ON11113pySefzOMk4syNOl+FuHz0RRddlE477TRhAaAwQkTBYhbLP//5z7lV4ne/+12ekKrXlolDDz00X4Nh9uzZrS0AlML0dQWLAY4nnnhiuuqqq9LZZ5+d1wFgpIQIsjjtUncEAL0QIsgiRJhFEYBeCBFkMZ2zEAFAL4QIGokzPdasWdNaA6AkQgSNxBUkzSwJUCYhgkZiMOZIr2wJwNhi708jBmQClEuIoBEhAqBcQgSNOKsDoFxCBI0IEADlEiJoZOXKlU7xBCiUEEEjkydPzpcDB6A8QgSNGBMBUC4hAgCoRYgAAGoRIgCAWoQIAKAWIYJG4vTOtWvXttYAKIkQQSPOzgAolxABANQiRNDI+vXrW/cAKI0QQSMRIgQJgDIJETSybt06IQKgUEIEjcQFuFavXt1aA6AkQgRZ3daE8ePH5zM0ACiPvT9ZdEvE0itjIgDKJUSQDQ0N1QoRMdFUndcBMPiECLK6LRERIrREAJRJiCCr26KgJQKgXEIEjaxYsSKtWrWqtQZASYQIsjhNM8ZF9Mq1MwDKJUSQ1R1YGa8xJgKgTEIEWYSIOpf0NiYCoFxCBJmBlQD0Soggq9stsXz5cgMrAQolRJDWrFmTlzotCgZWApRLiCAHiDpnZoQIHtGlYXAlQHmECBqNa4jXRQiJ9wCgLEIEtU/vrBhcCVAmIYLGIaBpCAFgMAkR1J4joqIlAqBMQgR9aYloEkIAGExCBFoiAKhFiCBNmjQpTZgwobXWu7iSZ1zAC4CyCBGklStX5tM065o4cWIaP358aw2AUggRNO7OMGMlQJmECPJ4hiYzTjZ9PQCDSYhACACgFiGCHCCahAgBBKBMQgSNWyKahhAABpMQQeMQIEQAlEmIoC8tEQCUR4igcUtC09cDMJiECNLkyZPzhFF1RUtGLACURYggz1hp2moAeiVE0PgCWlohAMokRNB4PIMxEQBlEiJoHAKant0BwGASImgcIuK1ujQAyiNE0LgVQYAAKJMQQdYkSESIECQAyiNE0JeWiKbvAcDgESLIAaBJCGj6egAGkxBBnq1ywoQJrbXeDQ0N6c4AKJAQQeMZK7VEAJRJiCAHiGhNqKvpjJcADCYhghwgIgjU1fT1AAwmIYK0Zs0aIQKAngkR9KUlQncGQHmECLREAFCLEEHjEBGv1RIBUB4hAt0ZANQiRJC22mqrvNT12muvpVWrVrXWACiFEEFavnx5oxAQrRAmmwIojxBB45aEppNVATCYhAhygGgSApq+HoDBJESQQ0CcoVFX09cDMJiEiMJF8Y8xEUIEAL0SIgoXV/CMENBkYGS8hxABUB4honD9GM8QAytjcKZZKwHKIkQULuaHGDduXGutngghy5Yty4EEgHIIEYV75ZVX0ooVK1pr9UV3hpYIgLIIEYWLANGPFgTjIgDKI0QUrl/FP94nxkYAUA4honD9Kv5aIgDKI0QUrp8tEUIEQFmEiMIJEQDUJUQULs6oiKtwNtWvszwAGBxCROFeffXVPFFUU67kCVAeIaJwMUlUdEU01a9TRQEYHEJE4fpV/OMiXkIEQFmEiILFRbf6VfzjffrRogHA4BAiChZjIWJAZD/miYhukXi/JlcDBWCwCBEFi66MfhX+eJ8lS5bo0gAoiBBBX8RpohEinOYJUA4homAvvfRSWrp0aWutuQgQrp8BUA4homD9niCqX6eLAjAYhIiC9bvoCxEAZREiChbXuujnLJOLFi3qa/cIsOnFfiFaKM1Ay0iMW++cvGLdcccd6cYbb0zz589vbWlm1qxZ6ZJLLklvf/vbW1uALUmE/BdeeCGPh2pf4gDg5ZdfzoOjozUxBkpvu+226aCDDkrHHHNMOvbYY9PMmTNb7wL/R4go2Le+9a30zW9+Mz3//POtLc3sscce6fLLL08nn3xyawsMhiiaUWBHcory1ltvnaZNm5bGjRvX2rJ5xGnV0WIQF9GLrsS4H0tM/BbjnWKJYLBw4cIcEuI2HovBz9HaUN1WS7Q8xFJdkG/8+PH537nNNtvkMHH22Wen448/Pm+DihBRsC9+8Yvp5ptvzjubfpgxY0a68sor03vf+97WFjaVKH5RINqboGO9KjIh/tSjULaPW4n78bzqOVFAhhvbsrELtkUxitfXOUsnXlsVuU0t/m9GekXbKK6xbG7xWeMzt3/2alsVCGJpDwoj+fd1M2nSpLTrrrums846K73//e9Pb3jDG1qPUDohomDXX399uuWWW/KOux9ix/rJT34ynXfeefnoZaxpP/KrxE45Cmtn0a2OCquddrcC3q3wV0eS7Tv7zsIdPz8KdftRc1U82v+cq22V9mJT6fa6zue0i8+6ocdC9TPa32+kun0WthzR8rLTTjulj3/84zlIjMW/cXonRBTs6quvTnPnzt3gUWcd0ZVx4YUXpkMPPbS1ZfRF4YkCvXjx4lxco2Ul+naro9r2gttekKtCH6+vdB6Zt9tQkYttnYW12tb+3M4CHI91vl+313W+f/W6zp8Jm8I+++yTLr744vy3PmHChNZWSiVEFOzTn/50uu222/6rYDUVzZxXXHFFOu2001pbmolCGaEgxm1USwwMi9sIDVVYqJpuo7i23+8suO2FPG7jsXbVNn8W0F20OL7nPe/JLRIHHHBAayulEiIKNmfOnPSd73yntdYfsYN55zvfmT72sY+lN73pTT0dqURrwdNPP50eeeSRvMRZI88888zrfeydS3tYADadPffcM1122WUGUSNElGw0ujPC1KlT08EHH5zOOeecdOKJJ6btttuu9cj/iWAQAWHBggXpiSeeSI899lgODTGavBp7EJ8rgkXVcgBsGeLg4BOf+EQ699xz84BqyiVEFOwrX/lKuummm3Lh7rfYycQgrO233z7tuOOOuZtjhx12yOEgwkOcbhb3IyREWIjgELdaFWAwxEHCRz/60dwqQbmEiILdeuut6etf/3puDRhNESjiFLG4jVaFCA7RDeGrB4PrzDPPzN2W++23X2sLJTLtdcGihWD69OmttdETgSFaHeLMiOjGiPPVBQgYbP6GCUJEweJULVPZAnXEtNgx/omyCREF23vvvfNYha228jUARm7y5Mlp3333za2ZlE31KFgcRbzxjW+0IwB6Eq2Ye+21Vx7rRNmEiILFNLZHHHFEbpEAGIlouZw9e3Y+jRuEiMIdfvjh6bDDDtO3CYzICSeckE4//XTjqciEiMLFZY2PO+643L8JMJyYhfaDH/xgvjbOlnAlUzY/80SQr0ERV/S88847+z57JZQuzmKYMmVKa+3/i/A+bdq0/xnUHOtxdczO53cT863EdWPilOlKtS2uNxOnVfdrtteJEyfmLozzzz8/HX300fmzQxAiyOd7//GPf0w33HBD+stf/tLaClueKF7txTcmMIu5TuJsgXbdTj/sfG2IgYHx+nifdvF+UeijeHaKAh+Pdb6m2t55hB7P6xYWuh3Jxzil2N75/G4iIFRLJf6WY9bXmJslDghibpaYkTZmiI3bOGCI21heeuml12eO3VAZiP+vgw46KJ100km5GyNaLEcScCiHEEEW007fcssteYkrZMJIRdGLo+coyLFEIY3bKOJVUW0v4LFE4a6KUWfBbg8Asa16v1AV2Ci2oSq61XqlW+HuVpxjvdvrN7Q9VI91Gu41m0Ps2quL1EVrRSyd67FEy0VcDXfRokX5CrkRMOK1cfp3dFvEtNYxZX38jrv9uymbEMHrnnrqqdwacffdd+dmUca2qpk9inQU+CjcVXGPbVHcYz22V9viNopJVfirYBDFJW7bi3rntrgfOter11fFd7jH6L9oyegMFiGCW/x+u7XGQEWI4HXRDPr3v/89felLX0p/+MMf8o6FLVPs2KPARyGvlliPAl8V9/bHq/tVCIgCUR2tV4W687Yq9ht7DCiXEMF/Wb16dbrnnnvyFT4feOCBDfaV0kwU3yjmVbGvlqroV4W/PQy0Px5hoCronUu37Z0hIG4BmhIi+B8xPuK+++5LX/va19L999+vRWIDohhHEKiKe3U/ugmi+Fd9+zNmzMi31fZ4XqxXBb596QwA3QJBLJr3gS2BEEFXMbL74YcfTjfffHP69a9/na++OVZVXQNR5CMMRNGP21jvDAbbbbfd68Eg1rsV+KqboNtj1aIlABgLhAg2KFogYrT2vHnz0h133JEefPDBLXrAZRT7qgWgKv6xVIGgai2I52y//favtwrEbRT1KP7thb5zvdpWPVcQAEonRLBR0Qrx3HPPpb/+9a+5myPGSixYsCCPn+i3atR/daRftQDEbQSCKPrxePv96rnRotBZ9Kuls/i3BwRhAKAeIYIRia9JTEqzdOnSHCpiLokIFjFhTbXEWIoNaT/fPwp+LNEtENuiVSBuq8DQXvxHslTBwDgBgE1LiKCW6OqIlog4p7y6HW6K3eqUwG6nDXa2EgAwGIQIAKAWh30AQC1CBABQixABANQiRAAAtQgRAEAtQgQAUIsQAQDUIkQAALUIEQBALUIEAFCLEAEA1CJEAAC1CBEAQC1CBABQixABANQiRAAAtQgRAEAtQgQAUIsQAQDUkNL/AxYpJy3WltL6AAAAAElFTkSuQmCC;" vertex="1" parent="EI2d-nt05hpr1vi_tLHB-117">
          <mxGeometry x="90.88" y="120" width="228.25" height="170" as="geometry" />
        </mxCell>
        <mxCell id="EI2d-nt05hpr1vi_tLHB-121" value="" style="group" vertex="1" connectable="0" parent="EI2d-nt05hpr1vi_tLHB-110">
          <mxGeometry x="570" y="390" width="410" height="320" as="geometry" />
        </mxCell>
        <mxCell id="EI2d-nt05hpr1vi_tLHB-118" value="" style="rounded=1;whiteSpace=wrap;html=1;" vertex="1" parent="EI2d-nt05hpr1vi_tLHB-121">
          <mxGeometry width="410" height="320" as="geometry" />
        </mxCell>
        <mxCell id="EI2d-nt05hpr1vi_tLHB-119" value="&lt;br&gt;&lt;div&gt;&lt;font style=&quot;font-size: 36px;&quot;&gt;Process the data&lt;/font&gt;&lt;/div&gt;" style="text;html=1;align=center;verticalAlign=middle;resizable=0;points=[];autosize=1;strokeColor=none;fillColor=none;" vertex="1" parent="EI2d-nt05hpr1vi_tLHB-121">
          <mxGeometry x="67.1052631578948" y="25" width="290" height="70" as="geometry" />
        </mxCell>
        <mxCell id="EI2d-nt05hpr1vi_tLHB-120" value="" style="shape=image;verticalLabelPosition=bottom;labelBackgroundColor=default;verticalAlign=top;aspect=fixed;imageAspect=0;image=data:image/png,iVBORw0KGgoAAAANSUhEUgAAAVoAAAFaCAYAAABfUZV2AAAAAXNSR0IArs4c6QAAAARnQU1BAACxjwv8YQUAAAAJcEhZcwAAD2EAAA9hAag/p2kAAAiOSURBVHhe7d0/j03/GsZha8/MxlDIz78wFBKNRlTegEL0WoVaFF4CiUQioiCRKCQSElEoFAqvgEEjImRESy8SzMyeY+I53Tk5371y7uXfdSU77mZnM2Y+VvXo1r7bMJABPwrg/6rrulrTG9WvAIQILUCY0AKECS1AmNAChAktQJjQAoQJLUCY0AKECS1AmNAChAktQJjQAoQJLUCY0AKECS1AmNAChAktQJjQAoQJLUBYN5lMBvsfEy9evFir3Z07d2pl7du3r1bezMxMrXZ93jMaTf/vaJ/3rFteXq7V7suXL7Xa9XnPyspKrXZ93rPu+89TrXarq6u12g31H532+fOs6/P1e/fuXa2so0eP1prOkydPak3PEy1AmNAChAktQJjQAoQJLUCY0AKECS1AmNAChAktQJjQAoQJLUCY0AKEDXpU5vTp07Xa3b59u1bWsWPHauU5KvODozI/OCrzg6MyAPQmtABhQgsQJrQAYUILECa0AGFCCxAmtABhQgsQJrQAYUILECa0AGGOypSTJ0/Wypudna3Vruu6Wll9j8r0OXozHo9rtdu4cWOtdps3b67Vrs/nrJubm6vVrs97+nwP9fm77fM56/oco/nw4UOtrP3799eaztmzZ2tNzxMtQJjQAoQJLUCY0AKECS1AmNAChAktQJjQAoQJLUCY0AKECS1AmNAChA16VOb8+fO12i0uLtbKun//fq28PsdU6K/voRz+TH0PNPU5nPRvvgMBwoQWIExoAcKEFiBMaAHChBYgTGgBwoQWIExoAcKEFiBMaAHChBYgTGgBwoQWIExoAcKEFiBMaAHChBYgTGgBwoQWIExoAcKEFiBMaAHChBYgTGgBwoQWIKybTCZrteMuXbpUq92zZ89qZd27d69W3ng8rgX8DTzRAoQJLUCY0AKECS1AmNAChAktQJjQAoQJLUCY0AKECS1AmNAChAktQNigoZ2dnf1lX6PRaLAX8HfxUw8QJrQAYUILECa0AGFCCxAmtABhQgsQJrQAYUILECa0AGFCCxAmtABhg4b2Px1Y+V+vmZmZQV4AKZ5oAcKEFiBMaAHChBYgTGgBwoQWIExoAcKEFiBMaAHChBYgTGgBwoQWIKybTCZrteOuXr1aq93z589rZd26datW3uzsbK12XdfVyur7OX3eN9SfCX42T7QAYUILECa0AGFCCxAmtABhQgsQJrQAYUILECa0AGFCCxAmtABhQgsQJrQAYYOGdjQaTf0C+N0pGUCY0AKECS1AmNAChAktQJjQAoQJLUCY0AKECS1AmNAChAktQJjQAoR1k8lkrXbctWvXarV7/PhxraxTp07Vavf69eta01laWqrV7uXLl7WyFhYWak3n4cOHtdqNx+NaWV3X1YKfwxMtQJjQAoQJLUCY0AKECS1AmNAChAktQJjQAoQJLUCY0AKECS1AmNAChA16VObQoUO12r19+7YWQ9ixY0et6bx//75Wu61bt9bKclSGn80TLUCY0AKECS1AmNAChAktQJjQAoQJLUCY0AKECS1AmNAChAktQJjQAoQJLUCY0AKECS1AmNAChAktQJjQAoQJLUCY0AKECS1AmNAChAktQJjQAoQJLUBYN5lM1mrHHT9+vFa7V69e1co6d+5crXb79u2rNZ2dO3fWajcej2u127hxY612Bw8erDWdf/75p1ZW13W14PfhiRYgTGgBwoQWIExoAcKEFiBMaAHChBYgTGgBwoQWIExoAcKEFiBMaAHChBYgbNDrXdevX6/VbnFxsVbWzZs3a+XNzc3VajfU1aq+nzMa+Tcb/hs/HQBhQgsQJrQAYUILECa0AGFCCxAmtABhQgsQJrQAYUILECa0AGFCCxA2aGhXV1d/2RdAiidagDChBQgTWoAwoQUIE1qAMKEFCBNagDChBQgTWoAwoQUIE1qAMKEFCOsmk8la7bgrV67Uavfs2bNaWXfv3q2VNzs7Wwv4G3iiBQgTWoAwoQUIE1qAMKEFCBNagDChBQgTWoAwoQUIE1qAMKEFCBNagLBBj8pcvny5VjtHZf5ca2uDfev9cbquq9VuNPJc9bP4ygOECS1AmNAChAktQJjQAoQJLUCY0AKECS1AmNAChAktQJjQAoQJLUDYoEdlLly4UKvd06dPa2U9ePCgVt54PK71d3NUpj9HZX4vvvIAYUILECa0AGFCCxAmtABhQgsQJrQAYUILECa0AGFCCxAmtABhQgsQJrQAYYNe7zpz5kytdm/evKmV9ejRo1p5KysrtdotLy/Xavf169da7b59+1ZrOn1+f6urq7Xaff9+rdVuyCthnz9/rpU1Pz9fq92hQ4dq5fW5LvYn80QLECa0AGFCCxAmtABhQgsQJrQAYUILECa0AGFCCxAmtABhQgsQJrQAYb/8UZkbN27Uytq9e3etdn0PiAx1IIYfZmZmarUbjfo9g/T5u+3jyJEjtdq9ePGiVl6fozJ/8iEaT7QAYUILECa0AGFCCxAmtABhQgsQJrQAYUILECa0AGFCCxAmtABhQgsQNmhot2zZMvVrKJ8+fZr6BdDCEy1AmNAChAktQJjQAoQJLUCY0AKECS1AmNAChAktQJjQAoQJLUCY0AKEdZPJZK123NLSUq12J06cqNXu48ePtbIOHDhQazq7du2q1W5hYaFWu71799Zqt2fPnlrT2b59e61227Ztq9Wuz6Gh8Xhcq92mTZtqTWd5eblW1vz8fK12hw8frpXXdV0t1nmiBQgTWoAwoQUIE1qAMKEFCBNagDChBQgTWoAwoQUIE1qAMKEFCBNagDChBQjr1r6r/Uv6xX978NtwUevn8UQLECa0AGFCCxAmtABhQgsQJrQAYUILECa0AGFCCxAmtABhQgsQJrQAYUILECa0AGFCCxAmtABhQgsQJrQAYUILECa0AFEbNvwLH5bSsGykWbkAAAAASUVORK5CYII=;" vertex="1" parent="EI2d-nt05hpr1vi_tLHB-121">
          <mxGeometry x="140" y="120" width="164.61" height="164.61" as="geometry" />
        </mxCell>
        <mxCell id="EI2d-nt05hpr1vi_tLHB-127" style="edgeStyle=orthogonalEdgeStyle;rounded=0;orthogonalLoop=1;jettySize=auto;html=1;exitX=0.5;exitY=1;exitDx=0;exitDy=0;strokeWidth=5;" edge="1" parent="EI2d-nt05hpr1vi_tLHB-110">
          <mxGeometry relative="1" as="geometry">
            <mxPoint x="775.5" y="810" as="targetPoint" />
            <mxPoint x="774.5" y="710" as="sourcePoint" />
          </mxGeometry>
        </mxCell>
        <mxCell id="EI2d-nt05hpr1vi_tLHB-128" style="edgeStyle=orthogonalEdgeStyle;rounded=0;orthogonalLoop=1;jettySize=auto;html=1;exitX=1;exitY=0.5;exitDx=0;exitDy=0;entryX=0;entryY=0.5;entryDx=0;entryDy=0;strokeWidth=5;" edge="1" parent="EI2d-nt05hpr1vi_tLHB-110">
          <mxGeometry relative="1" as="geometry">
            <mxPoint x="480" y="549.71" as="sourcePoint" />
            <mxPoint x="570" y="549.71" as="targetPoint" />
          </mxGeometry>
        </mxCell>
      </root>
    </mxGraphModel>
  </diagram>
</mxfile>
